<svg width="409" height="160" viewBox="0 0 409 160" fill="none" xmlns="http://www.w3.org/2000/svg">
<rect width="204" height="40" fill="#1F1F1F"/>
<path d="M22.1592 22.416C22.1592 22.2246 22.1296 22.0537 22.0703 21.9033C22.0156 21.7484 21.9131 21.6094 21.7627 21.4863C21.6169 21.3587 21.4095 21.2357 21.1406 21.1172C20.8763 20.9941 20.5345 20.8665 20.1152 20.7344C19.6504 20.5885 19.2174 20.4245 18.8164 20.2422C18.4154 20.0599 18.0622 19.848 17.7568 19.6064C17.4561 19.3649 17.2214 19.0869 17.0527 18.7725C16.8841 18.4535 16.7998 18.0843 16.7998 17.665C16.7998 17.2549 16.8864 16.8812 17.0596 16.5439C17.2373 16.2067 17.488 15.9173 17.8115 15.6758C18.1351 15.4297 18.5156 15.2406 18.9531 15.1084C19.3952 14.9762 19.8828 14.9102 20.416 14.9102C21.1543 14.9102 21.7923 15.0446 22.3301 15.3135C22.8724 15.5824 23.2917 15.9469 23.5879 16.4072C23.8841 16.8675 24.0322 17.3848 24.0322 17.959H22.1592C22.1592 17.6491 22.0931 17.3757 21.9609 17.1387C21.8333 16.9017 21.6374 16.7148 21.373 16.5781C21.1133 16.4414 20.7852 16.373 20.3887 16.373C20.0059 16.373 19.6868 16.43 19.4316 16.5439C19.181 16.6579 18.9919 16.8128 18.8643 17.0088C18.7412 17.2048 18.6797 17.4235 18.6797 17.665C18.6797 17.8473 18.723 18.0114 18.8096 18.1572C18.8962 18.2985 19.026 18.4329 19.1992 18.5605C19.3724 18.6836 19.5866 18.7998 19.8418 18.9092C20.1016 19.014 20.4023 19.1188 20.7441 19.2236C21.291 19.3877 21.7695 19.57 22.1797 19.7705C22.5944 19.971 22.9385 20.1989 23.2119 20.4541C23.4899 20.7093 23.6973 20.9964 23.834 21.3154C23.9753 21.6344 24.0459 21.9967 24.0459 22.4023C24.0459 22.8307 23.9616 23.2135 23.793 23.5508C23.6243 23.888 23.3828 24.1751 23.0684 24.4121C22.7539 24.6491 22.3757 24.8291 21.9336 24.9521C21.4961 25.0752 21.0062 25.1367 20.4639 25.1367C19.9808 25.1367 19.5023 25.0729 19.0283 24.9453C18.5589 24.8132 18.1328 24.6172 17.75 24.3574C17.3672 24.0931 17.0618 23.7604 16.834 23.3594C16.6061 22.9538 16.4922 22.4798 16.4922 21.9375H18.3789C18.3789 22.252 18.429 22.5208 18.5293 22.7441C18.6341 22.9629 18.7799 23.1429 18.9668 23.2842C19.1582 23.4209 19.3815 23.5212 19.6367 23.585C19.8919 23.6488 20.1676 23.6807 20.4639 23.6807C20.8467 23.6807 21.1611 23.6283 21.4072 23.5234C21.6579 23.4141 21.8447 23.2637 21.9678 23.0723C22.0954 22.8809 22.1592 22.6621 22.1592 22.416ZM29.5926 23.4277V20.0166C29.5926 19.766 29.5493 19.5495 29.4627 19.3672C29.3761 19.1849 29.244 19.0436 29.0662 18.9434C28.8885 18.8431 28.6629 18.793 28.3895 18.793C28.148 18.793 27.936 18.834 27.7537 18.916C27.576 18.998 27.4393 19.1143 27.3436 19.2646C27.2479 19.4105 27.2 19.5791 27.2 19.7705H25.3885C25.3885 19.4652 25.4614 19.1758 25.6073 18.9023C25.7531 18.6243 25.9605 18.3783 26.2293 18.1641C26.5028 17.9453 26.8286 17.7744 27.2069 17.6514C27.5897 17.5283 28.0181 17.4668 28.492 17.4668C29.0526 17.4668 29.5516 17.5625 29.9891 17.7539C30.4312 17.9408 30.7775 18.2233 31.0282 18.6016C31.2834 18.9798 31.411 19.4561 31.411 20.0303V23.2568C31.411 23.626 31.4338 23.9427 31.4793 24.207C31.5295 24.4668 31.6024 24.6924 31.6981 24.8838V25H29.8592C29.7726 24.8132 29.7065 24.5762 29.661 24.2891C29.6154 23.9974 29.5926 23.7103 29.5926 23.4277ZM29.8455 20.4951L29.8592 21.5684H28.7176C28.4351 21.5684 28.1867 21.598 27.9725 21.6572C27.7583 21.7119 27.5829 21.7939 27.4461 21.9033C27.3094 22.0081 27.2069 22.1357 27.1385 22.2861C27.0702 22.432 27.036 22.5983 27.036 22.7852C27.036 22.9674 27.077 23.1315 27.159 23.2773C27.2456 23.4232 27.3687 23.5394 27.5282 23.626C27.6922 23.708 27.8836 23.749 28.1024 23.749C28.4214 23.749 28.6994 23.6852 28.9364 23.5576C29.1733 23.4255 29.3579 23.266 29.4901 23.0791C29.6222 22.8923 29.6929 22.7145 29.702 22.5459L30.2215 23.3252C30.1577 23.512 30.062 23.7103 29.9344 23.9199C29.8068 24.1296 29.6427 24.3255 29.4422 24.5078C29.2417 24.6901 29.0002 24.8405 28.7176 24.959C28.4351 25.0775 28.1069 25.1367 27.7332 25.1367C27.2547 25.1367 26.8263 25.041 26.4481 24.8496C26.0698 24.6582 25.7713 24.3962 25.5526 24.0635C25.3338 23.7308 25.2245 23.3525 25.2245 22.9287C25.2245 22.5368 25.2974 22.1904 25.4432 21.8896C25.589 21.5889 25.8055 21.3359 26.0926 21.1309C26.3797 20.9212 26.7352 20.764 27.159 20.6592C27.5874 20.5498 28.0773 20.4951 28.6287 20.4951H29.8455ZM34.9958 19.1211V25H33.1911V17.6035H34.8932L34.9958 19.1211ZM34.7292 21.0352H34.1755C34.1755 20.5202 34.237 20.0462 34.36 19.6133C34.4876 19.1803 34.6745 18.8044 34.9206 18.4854C35.1667 18.1618 35.4697 17.9111 35.8298 17.7334C36.1943 17.5557 36.6159 17.4668 37.0944 17.4668C37.4271 17.4668 37.7324 17.5169 38.0104 17.6172C38.2884 17.7129 38.5277 17.8656 38.7282 18.0752C38.9333 18.2803 39.0905 18.5492 39.1999 18.8818C39.3093 19.21 39.3639 19.6042 39.3639 20.0645V25H37.5593V20.249C37.5593 19.9027 37.5091 19.6315 37.4089 19.4355C37.3132 19.2396 37.1742 19.1029 36.9919 19.0254C36.8096 18.9434 36.5908 18.9023 36.3356 18.9023C36.0531 18.9023 35.8093 18.9593 35.6042 19.0732C35.4037 19.1826 35.2373 19.3353 35.1052 19.5312C34.9776 19.7272 34.8818 19.9528 34.818 20.208C34.7588 20.4632 34.7292 20.7389 34.7292 21.0352ZM39.2272 20.7002L38.4821 20.8369C38.4867 20.3721 38.5505 19.9368 38.6735 19.5312C38.7966 19.1211 38.9766 18.7633 39.2136 18.458C39.4551 18.1481 39.7536 17.9066 40.1091 17.7334C40.4691 17.5557 40.8838 17.4668 41.3532 17.4668C41.7178 17.4668 42.0459 17.5192 42.3376 17.624C42.6338 17.7243 42.8867 17.8861 43.0964 18.1094C43.306 18.3281 43.4655 18.613 43.5749 18.9639C43.6888 19.3148 43.7458 19.7432 43.7458 20.249V25H41.9274V20.2422C41.9274 19.8822 41.8773 19.6064 41.777 19.415C41.6813 19.2236 41.5423 19.0915 41.36 19.0186C41.1777 18.9411 40.9636 18.9023 40.7175 18.9023C40.4668 18.9023 40.2481 18.9502 40.0612 19.0459C39.8789 19.137 39.724 19.2646 39.5964 19.4287C39.4733 19.5928 39.3799 19.7842 39.3161 20.0029C39.2568 20.2171 39.2272 20.4495 39.2272 20.7002ZM47.3306 19.0254V27.8438H45.5191V17.6035H47.1939L47.3306 19.0254ZM52.0816 21.2266V21.3701C52.0816 21.9079 52.0178 22.4069 51.8902 22.8672C51.7671 23.3229 51.5848 23.7217 51.3433 24.0635C51.1017 24.4007 50.801 24.665 50.4409 24.8564C50.0855 25.0433 49.6753 25.1367 49.2105 25.1367C48.7547 25.1367 48.3583 25.0501 48.021 24.877C47.6838 24.6992 47.3989 24.4486 47.1665 24.125C46.9341 23.8014 46.7473 23.4255 46.606 22.9971C46.4693 22.5641 46.3667 22.0924 46.2984 21.582V21.124C46.3667 20.5817 46.4693 20.0895 46.606 19.6475C46.7473 19.2008 46.9341 18.8158 47.1665 18.4922C47.3989 18.1641 47.6815 17.9111 48.0142 17.7334C48.3514 17.5557 48.7456 17.4668 49.1968 17.4668C49.6662 17.4668 50.0786 17.5557 50.4341 17.7334C50.7941 17.9111 51.0972 18.1663 51.3433 18.499C51.5894 18.8317 51.7739 19.2282 51.897 19.6885C52.02 20.1488 52.0816 20.6615 52.0816 21.2266ZM50.27 21.3701V21.2266C50.27 20.8984 50.2404 20.5954 50.1812 20.3174C50.1219 20.0348 50.0308 19.7887 49.9077 19.5791C49.7847 19.3649 49.6252 19.1986 49.4292 19.0801C49.2333 18.9616 48.9963 18.9023 48.7183 18.9023C48.4403 18.9023 48.201 18.9479 48.0005 19.0391C47.8 19.1302 47.6359 19.2601 47.5083 19.4287C47.3807 19.5973 47.2805 19.7979 47.2075 20.0303C47.1392 20.2581 47.0936 20.5111 47.0708 20.7891V21.9238C47.1118 22.2611 47.1916 22.5641 47.3101 22.833C47.4286 23.1019 47.6017 23.3161 47.8296 23.4756C48.062 23.6351 48.3628 23.7148 48.732 23.7148C49.0099 23.7148 49.2469 23.6533 49.4429 23.5303C49.6389 23.4072 49.7984 23.2386 49.9214 23.0244C50.0445 22.8057 50.1333 22.555 50.188 22.2725C50.2427 21.9899 50.27 21.6891 50.27 21.3701ZM55.475 14.5V25H53.6634V14.5H55.475ZM60.6799 25.1367C60.1193 25.1367 59.6158 25.0456 59.1691 24.8633C58.7225 24.681 58.342 24.4281 58.0275 24.1045C57.7176 23.7764 57.4784 23.3958 57.3098 22.9629C57.1457 22.5254 57.0637 22.056 57.0637 21.5547V21.2812C57.0637 20.7116 57.1457 20.1943 57.3098 19.7295C57.4738 19.2601 57.7062 18.8568 58.007 18.5195C58.3078 18.1823 58.6678 17.9225 59.0871 17.7402C59.5064 17.5579 59.9689 17.4668 60.4748 17.4668C60.9989 17.4668 61.4615 17.5557 61.8625 17.7334C62.2635 17.9066 62.5985 18.1527 62.8674 18.4717C63.1363 18.7907 63.3391 19.1735 63.4758 19.6201C63.6125 20.0622 63.6809 20.5521 63.6809 21.0898V21.8486H57.884V20.6045H61.9035V20.4678C61.8944 20.1807 61.8397 19.9186 61.7395 19.6816C61.6392 19.4401 61.4842 19.2487 61.2746 19.1074C61.065 18.9616 60.7938 18.8887 60.4611 18.8887C60.1923 18.8887 59.9576 18.9479 59.757 19.0664C59.5611 19.1803 59.397 19.3444 59.2648 19.5586C59.1372 19.7682 59.0415 20.0189 58.9777 20.3105C58.9139 20.6022 58.882 20.9258 58.882 21.2812V21.5547C58.882 21.8646 58.923 22.1517 59.0051 22.416C59.0917 22.6803 59.217 22.9105 59.3811 23.1064C59.5497 23.2979 59.7502 23.4482 59.9826 23.5576C60.2196 23.6624 60.4885 23.7148 60.7893 23.7148C61.1675 23.7148 61.5093 23.6419 61.8146 23.4961C62.1245 23.3457 62.3934 23.1247 62.6213 22.833L63.5305 23.7764C63.3755 24.0042 63.1659 24.223 62.9016 24.4326C62.6418 24.6423 62.3273 24.8132 61.9582 24.9453C61.5891 25.0729 61.163 25.1367 60.6799 25.1367ZM73.1337 23.4277V14.5H74.952V25H73.3114L73.1337 23.4277ZM68.3827 21.3906V21.2471C68.3827 20.682 68.4465 20.1693 68.5741 19.709C68.7063 19.2441 68.8977 18.8454 69.1483 18.5127C69.399 18.18 69.702 17.9225 70.0575 17.7402C70.4175 17.5579 70.8254 17.4668 71.2811 17.4668C71.7232 17.4668 72.1083 17.5557 72.4364 17.7334C72.7691 17.9111 73.0516 18.1641 73.2841 18.4922C73.521 18.8203 73.7102 19.21 73.8514 19.6611C73.9927 20.1077 74.0953 20.5999 74.1591 21.1377V21.5273C74.0953 22.0514 73.9927 22.5322 73.8514 22.9697C73.7102 23.4072 73.521 23.79 73.2841 24.1182C73.0516 24.4417 72.7691 24.6924 72.4364 24.8701C72.1037 25.0479 71.7141 25.1367 71.2675 25.1367C70.8163 25.1367 70.4107 25.0433 70.0507 24.8564C69.6952 24.6696 69.3921 24.4076 69.1415 24.0703C68.8954 23.7331 68.7063 23.3366 68.5741 22.8809C68.4465 22.4251 68.3827 21.9284 68.3827 21.3906ZM70.1942 21.2471V21.3906C70.1942 21.7096 70.2216 22.0081 70.2762 22.2861C70.3309 22.5641 70.4198 22.8102 70.5429 23.0244C70.6659 23.234 70.8231 23.3981 71.0145 23.5166C71.2105 23.6351 71.4475 23.6943 71.7255 23.6943C72.0809 23.6943 72.3726 23.6169 72.6005 23.4619C72.8329 23.3024 73.0129 23.0859 73.1405 22.8125C73.2681 22.5345 73.3501 22.2223 73.3866 21.876V20.8027C73.3684 20.5293 73.3205 20.2764 73.243 20.0439C73.1701 19.8115 73.0653 19.611 72.9286 19.4424C72.7964 19.2738 72.6324 19.1416 72.4364 19.0459C72.2404 18.9502 72.008 18.9023 71.7391 18.9023C71.4611 18.9023 71.2242 18.9639 71.0282 19.0869C70.8322 19.2054 70.6727 19.3717 70.5497 19.5859C70.4266 19.8001 70.3355 20.0485 70.2762 20.3311C70.2216 20.6136 70.1942 20.9189 70.1942 21.2471ZM80.82 23.4277V20.0166C80.82 19.766 80.7767 19.5495 80.6902 19.3672C80.6036 19.1849 80.4714 19.0436 80.2937 18.9434C80.1159 18.8431 79.8904 18.793 79.6169 18.793C79.3754 18.793 79.1635 18.834 78.9812 18.916C78.8034 18.998 78.6667 19.1143 78.571 19.2646C78.4753 19.4105 78.4275 19.5791 78.4275 19.7705H76.6159C76.6159 19.4652 76.6889 19.1758 76.8347 18.9023C76.9805 18.6243 77.1879 18.3783 77.4568 18.1641C77.7302 17.9453 78.056 17.7744 78.4343 17.6514C78.8171 17.5283 79.2455 17.4668 79.7195 17.4668C80.28 17.4668 80.779 17.5625 81.2165 17.7539C81.6586 17.9408 82.0049 18.2233 82.2556 18.6016C82.5108 18.9798 82.6384 19.4561 82.6384 20.0303V23.2568C82.6384 23.626 82.6612 23.9427 82.7068 24.207C82.7569 24.4668 82.8298 24.6924 82.9255 24.8838V25H81.0866C81.0001 24.8132 80.934 24.5762 80.8884 24.2891C80.8428 23.9974 80.82 23.7103 80.82 23.4277ZM81.073 20.4951L81.0866 21.5684H79.945C79.6625 21.5684 79.4141 21.598 79.1999 21.6572C78.9857 21.7119 78.8103 21.7939 78.6736 21.9033C78.5368 22.0081 78.4343 22.1357 78.3659 22.2861C78.2976 22.432 78.2634 22.5983 78.2634 22.7852C78.2634 22.9674 78.3044 23.1315 78.3864 23.2773C78.473 23.4232 78.5961 23.5394 78.7556 23.626C78.9196 23.708 79.1111 23.749 79.3298 23.749C79.6488 23.749 79.9268 23.6852 80.1638 23.5576C80.4008 23.4255 80.5853 23.266 80.7175 23.0791C80.8497 22.8923 80.9203 22.7145 80.9294 22.5459L81.4489 23.3252C81.3851 23.512 81.2894 23.7103 81.1618 23.9199C81.0342 24.1296 80.8702 24.3255 80.6696 24.5078C80.4691 24.6901 80.2276 24.8405 79.945 24.959C79.6625 25.0775 79.3344 25.1367 78.9607 25.1367C78.4821 25.1367 78.0538 25.041 77.6755 24.8496C77.2973 24.6582 76.9987 24.3962 76.78 24.0635C76.5612 23.7308 76.4519 23.3525 76.4519 22.9287C76.4519 22.5368 76.5248 22.1904 76.6706 21.8896C76.8165 21.5889 77.0329 21.3359 77.32 21.1309C77.6071 20.9212 77.9626 20.764 78.3864 20.6592C78.8148 20.5498 79.3047 20.4951 79.8562 20.4951H81.073ZM87.9254 17.6035V18.9023H83.6871V17.6035H87.9254ZM84.8218 15.7852H86.6334V22.8672C86.6334 23.0859 86.663 23.2546 86.7222 23.373C86.7815 23.4915 86.8703 23.5713 86.9888 23.6123C87.1073 23.6533 87.2486 23.6738 87.4127 23.6738C87.5311 23.6738 87.6405 23.667 87.7408 23.6533C87.841 23.6396 87.9254 23.626 87.9937 23.6123L88.0005 24.9658C87.8502 25.016 87.6793 25.057 87.4879 25.0889C87.301 25.1208 87.0891 25.1367 86.8521 25.1367C86.4465 25.1367 86.091 25.0684 85.7857 24.9316C85.4804 24.7904 85.2434 24.5648 85.0748 24.2549C84.9061 23.9404 84.8218 23.5257 84.8218 23.0107V15.7852ZM93.3627 23.4277V20.0166C93.3627 19.766 93.3194 19.5495 93.2328 19.3672C93.1462 19.1849 93.0141 19.0436 92.8363 18.9434C92.6586 18.8431 92.433 18.793 92.1596 18.793C91.918 18.793 91.7061 18.834 91.5238 18.916C91.3461 18.998 91.2094 19.1143 91.1137 19.2646C91.018 19.4105 90.9701 19.5791 90.9701 19.7705H89.1586C89.1586 19.4652 89.2315 19.1758 89.3773 18.9023C89.5232 18.6243 89.7305 18.3783 89.9994 18.1641C90.2729 17.9453 90.5987 17.7744 90.977 17.6514C91.3598 17.5283 91.7881 17.4668 92.2621 17.4668C92.8227 17.4668 93.3217 17.5625 93.7592 17.7539C94.2012 17.9408 94.5476 18.2233 94.7982 18.6016C95.0534 18.9798 95.1811 19.4561 95.1811 20.0303V23.2568C95.1811 23.626 95.2038 23.9427 95.2494 24.207C95.2995 24.4668 95.3725 24.6924 95.4682 24.8838V25H93.6293C93.5427 24.8132 93.4766 24.5762 93.4311 24.2891C93.3855 23.9974 93.3627 23.7103 93.3627 23.4277ZM93.6156 20.4951L93.6293 21.5684H92.4877C92.2051 21.5684 91.9568 21.598 91.7426 21.6572C91.5284 21.7119 91.3529 21.7939 91.2162 21.9033C91.0795 22.0081 90.977 22.1357 90.9086 22.2861C90.8402 22.432 90.8061 22.5983 90.8061 22.7852C90.8061 22.9674 90.8471 23.1315 90.9291 23.2773C91.0157 23.4232 91.1387 23.5394 91.2982 23.626C91.4623 23.708 91.6537 23.749 91.8725 23.749C92.1915 23.749 92.4695 23.6852 92.7064 23.5576C92.9434 23.4255 93.128 23.266 93.2602 23.0791C93.3923 22.8923 93.463 22.7145 93.4721 22.5459L93.9916 23.3252C93.9278 23.512 93.8321 23.7103 93.7045 23.9199C93.5769 24.1296 93.4128 24.3255 93.2123 24.5078C93.0118 24.6901 92.7702 24.8405 92.4877 24.959C92.2051 25.0775 91.877 25.1367 91.5033 25.1367C91.0248 25.1367 90.5964 25.041 90.2182 24.8496C89.8399 24.6582 89.5414 24.3962 89.3227 24.0635C89.1039 23.7308 88.9945 23.3525 88.9945 22.9287C88.9945 22.5368 89.0674 22.1904 89.2133 21.8896C89.3591 21.5889 89.5756 21.3359 89.8627 21.1309C90.1498 20.9212 90.5053 20.764 90.9291 20.6592C91.3575 20.5498 91.8474 20.4951 92.3988 20.4951H93.6156Z" fill="#C9C9C9"/>
<rect width="204" height="40" transform="translate(0 40)" fill="#2F2F2F"/>
<rect y="40" width="204" height="1" fill="#191919"/>
<path d="M20.7031 60.3447H18.1807L18.167 59.2852H20.457C20.8353 59.2852 21.1657 59.2214 21.4482 59.0938C21.7308 58.9661 21.9495 58.7839 22.1045 58.5469C22.264 58.3053 22.3438 58.0182 22.3438 57.6855C22.3438 57.321 22.2731 57.0247 22.1318 56.7969C21.9951 56.5645 21.7832 56.3958 21.4961 56.291C21.2135 56.1816 20.8535 56.127 20.416 56.127H18.4746V65H17.1553V55.0469H20.416C20.9264 55.0469 21.3822 55.0993 21.7832 55.2041C22.1842 55.3044 22.5238 55.4639 22.8018 55.6826C23.0843 55.8968 23.2985 56.1702 23.4443 56.5029C23.5902 56.8356 23.6631 57.2344 23.6631 57.6992C23.6631 58.1094 23.5583 58.4808 23.3486 58.8135C23.139 59.1416 22.8473 59.4105 22.4736 59.6201C22.1045 59.8298 21.6715 59.9642 21.1748 60.0234L20.7031 60.3447ZM20.6416 65H17.6611L18.4062 63.9268H20.6416C21.0609 63.9268 21.4163 63.8538 21.708 63.708C22.0042 63.5622 22.2298 63.3571 22.3848 63.0928C22.5397 62.8239 22.6172 62.5072 22.6172 62.1426C22.6172 61.7734 22.5511 61.4544 22.4189 61.1855C22.2868 60.9167 22.0794 60.7093 21.7969 60.5635C21.5143 60.4176 21.1497 60.3447 20.7031 60.3447H18.8232L18.8369 59.2852H21.4072L21.6875 59.668C22.166 59.709 22.5716 59.8457 22.9043 60.0781C23.237 60.306 23.4899 60.5977 23.6631 60.9531C23.8408 61.3086 23.9297 61.7005 23.9297 62.1289C23.9297 62.7487 23.793 63.2728 23.5195 63.7012C23.2507 64.125 22.8701 64.4486 22.3779 64.6719C21.8857 64.8906 21.307 65 20.6416 65ZM27.2205 54.5V65H25.9491V54.5H27.2205ZM33.9362 63.291V57.6035H35.2077V65H33.9977L33.9362 63.291ZM34.1755 61.7324L34.7018 61.7188C34.7018 62.2109 34.6494 62.6667 34.5446 63.0859C34.4443 63.5007 34.2803 63.8607 34.0524 64.166C33.8246 64.4714 33.5261 64.7106 33.1569 64.8838C32.7878 65.0524 32.3389 65.1367 31.8102 65.1367C31.4502 65.1367 31.1198 65.0843 30.819 64.9795C30.5228 64.8747 30.2676 64.7129 30.0534 64.4941C29.8392 64.2754 29.6729 63.9906 29.5544 63.6396C29.4404 63.2887 29.3835 62.8672 29.3835 62.375V57.6035H30.6481V62.3887C30.6481 62.7214 30.6846 62.9971 30.7575 63.2158C30.835 63.43 30.9375 63.6009 31.0651 63.7285C31.1973 63.8516 31.3431 63.9382 31.5026 63.9883C31.6667 64.0384 31.8353 64.0635 32.0085 64.0635C32.5462 64.0635 32.9723 63.9609 33.2868 63.7559C33.6012 63.5462 33.8268 63.266 33.9636 62.915C34.1048 62.5596 34.1755 62.1654 34.1755 61.7324ZM40.3648 65.1367C39.8498 65.1367 39.3827 65.0501 38.9634 64.877C38.5487 64.6992 38.1909 64.4508 37.8902 64.1318C37.5939 63.8128 37.3661 63.4346 37.2066 62.9971C37.0471 62.5596 36.9673 62.0811 36.9673 61.5615V61.2744C36.9673 60.6729 37.0562 60.1374 37.2339 59.668C37.4116 59.194 37.6532 58.793 37.9585 58.4648C38.2639 58.1367 38.6102 57.8883 38.9976 57.7197C39.3849 57.5511 39.786 57.4668 40.2007 57.4668C40.7293 57.4668 41.1851 57.5579 41.5679 57.7402C41.9553 57.9225 42.272 58.1777 42.5181 58.5059C42.7642 58.8294 42.9465 59.2122 43.065 59.6543C43.1835 60.0918 43.2427 60.5703 43.2427 61.0898V61.6572H37.7193V60.625H41.978V60.5293C41.9598 60.2012 41.8915 59.8822 41.773 59.5723C41.659 59.2624 41.4767 59.0072 41.2261 58.8066C40.9754 58.6061 40.6336 58.5059 40.2007 58.5059C39.9136 58.5059 39.6493 58.5674 39.4077 58.6904C39.1662 58.8089 38.9588 58.9867 38.7857 59.2236C38.6125 59.4606 38.478 59.75 38.3823 60.0918C38.2866 60.4336 38.2388 60.8278 38.2388 61.2744V61.5615C38.2388 61.9124 38.2866 62.2428 38.3823 62.5527C38.4826 62.8581 38.6262 63.127 38.813 63.3594C39.0044 63.5918 39.2346 63.7741 39.5034 63.9062C39.7769 64.0384 40.0868 64.1045 40.4331 64.1045C40.8797 64.1045 41.258 64.0133 41.5679 63.8311C41.8778 63.6488 42.1489 63.4049 42.3814 63.0996L43.147 63.708C42.9875 63.9495 42.7847 64.1797 42.5386 64.3984C42.2925 64.6172 41.9894 64.7949 41.6294 64.9316C41.2739 65.0684 40.8524 65.1367 40.3648 65.1367ZM44.8724 54.5H46.1439V63.5645L46.0345 65H44.8724V54.5ZM51.141 61.2402V61.3838C51.141 61.9215 51.0772 62.4206 50.9496 62.8809C50.822 63.3366 50.6351 63.7331 50.389 64.0703C50.1429 64.4076 49.8421 64.6696 49.4867 64.8564C49.1312 65.0433 48.7233 65.1367 48.263 65.1367C47.7936 65.1367 47.3812 65.057 47.0257 64.8975C46.6748 64.7334 46.3786 64.4987 46.1371 64.1934C45.8955 63.888 45.7018 63.5189 45.556 63.0859C45.4147 62.653 45.3168 62.1654 45.2621 61.623V60.9941C45.3168 60.4473 45.4147 59.9574 45.556 59.5244C45.7018 59.0915 45.8955 58.7223 46.1371 58.417C46.3786 58.1071 46.6748 57.8724 47.0257 57.7129C47.3767 57.5488 47.7845 57.4668 48.2494 57.4668C48.7142 57.4668 49.1267 57.5579 49.4867 57.7402C49.8467 57.918 50.1475 58.1732 50.389 58.5059C50.6351 58.8385 50.822 59.2373 50.9496 59.7021C51.0772 60.1624 51.141 60.6751 51.141 61.2402ZM49.8695 61.3838V61.2402C49.8695 60.8711 49.8353 60.5247 49.767 60.2012C49.6986 59.873 49.5892 59.5859 49.4388 59.3398C49.2884 59.0892 49.0902 58.8932 48.8441 58.752C48.598 58.6061 48.2949 58.5332 47.9349 58.5332C47.6159 58.5332 47.3379 58.5879 47.1009 58.6973C46.8685 58.8066 46.6703 58.9548 46.5062 59.1416C46.3421 59.3239 46.2077 59.5335 46.1029 59.7705C46.0026 60.0029 45.9274 60.2445 45.8773 60.4951V62.1426C45.9502 62.4616 46.0687 62.7692 46.2328 63.0654C46.4014 63.3571 46.6247 63.5964 46.9027 63.7832C47.1852 63.9701 47.5339 64.0635 47.9486 64.0635C48.2904 64.0635 48.5821 63.9951 48.8236 63.8584C49.0697 63.7171 49.2679 63.5234 49.4183 63.2773C49.5733 63.0312 49.6872 62.7464 49.7601 62.4229C49.833 62.0993 49.8695 61.7529 49.8695 61.3838ZM55.9699 65.1367C55.4549 65.1367 54.9878 65.0501 54.5686 64.877C54.1538 64.6992 53.7961 64.4508 53.4953 64.1318C53.1991 63.8128 52.9712 63.4346 52.8117 62.9971C52.6522 62.5596 52.5725 62.0811 52.5725 61.5615V61.2744C52.5725 60.6729 52.6613 60.1374 52.8391 59.668C53.0168 59.194 53.2583 58.793 53.5637 58.4648C53.869 58.1367 54.2154 57.8883 54.6027 57.7197C54.9901 57.5511 55.3911 57.4668 55.8059 57.4668C56.3345 57.4668 56.7902 57.5579 57.173 57.7402C57.5604 57.9225 57.8771 58.1777 58.1232 58.5059C58.3693 58.8294 58.5516 59.2122 58.6701 59.6543C58.7886 60.0918 58.8479 60.5703 58.8479 61.0898V61.6572H53.3244V60.625H57.5832V60.5293C57.565 60.2012 57.4966 59.8822 57.3781 59.5723C57.2642 59.2624 57.0819 59.0072 56.8312 58.8066C56.5806 58.6061 56.2388 58.5059 55.8059 58.5059C55.5187 58.5059 55.2544 58.5674 55.0129 58.6904C54.7714 58.8089 54.564 58.9867 54.3908 59.2236C54.2176 59.4606 54.0832 59.75 53.9875 60.0918C53.8918 60.4336 53.8439 60.8278 53.8439 61.2744V61.5615C53.8439 61.9124 53.8918 62.2428 53.9875 62.5527C54.0878 62.8581 54.2313 63.127 54.4182 63.3594C54.6096 63.5918 54.8397 63.7741 55.1086 63.9062C55.382 64.0384 55.6919 64.1045 56.0383 64.1045C56.4849 64.1045 56.8632 64.0133 57.173 63.8311C57.4829 63.6488 57.7541 63.4049 57.9865 63.0996L58.7521 63.708C58.5926 63.9495 58.3898 64.1797 58.1437 64.3984C57.8977 64.6172 57.5946 64.7949 57.2346 64.9316C56.8791 65.0684 56.4576 65.1367 55.9699 65.1367ZM61.7491 58.7656V65H60.4844V57.6035H61.7149L61.7491 58.7656ZM64.0596 57.5625L64.0528 58.7383C63.948 58.7155 63.8477 58.7018 63.752 58.6973C63.6608 58.6882 63.556 58.6836 63.4375 58.6836C63.1459 58.6836 62.8884 58.7292 62.6651 58.8203C62.4418 58.9115 62.2526 59.0391 62.0977 59.2031C61.9427 59.3672 61.8197 59.5632 61.7286 59.791C61.642 60.0143 61.585 60.2604 61.5577 60.5293L61.2022 60.7344C61.2022 60.2878 61.2455 59.8685 61.3321 59.4766C61.4232 59.0846 61.5622 58.7383 61.7491 58.4375C61.9359 58.1322 62.1729 57.8952 62.46 57.7266C62.7517 57.5534 63.098 57.4668 63.4991 57.4668C63.5902 57.4668 63.695 57.4782 63.8135 57.501C63.932 57.5192 64.014 57.5397 64.0596 57.5625ZM66.6532 58.7656V65H65.3886V57.6035H66.619L66.6532 58.7656ZM68.9637 57.5625L68.9569 58.7383C68.8521 58.7155 68.7518 58.7018 68.6561 58.6973C68.565 58.6882 68.4602 58.6836 68.3417 58.6836C68.05 58.6836 67.7925 58.7292 67.5692 58.8203C67.3459 58.9115 67.1568 59.0391 67.0018 59.2031C66.8469 59.3672 66.7238 59.5632 66.6327 59.791C66.5461 60.0143 66.4891 60.2604 66.4618 60.5293L66.1063 60.7344C66.1063 60.2878 66.1496 59.8685 66.2362 59.4766C66.3274 59.0846 66.4664 58.7383 66.6532 58.4375C66.8401 58.1322 67.077 57.8952 67.3641 57.7266C67.6558 57.5534 68.0022 57.4668 68.4032 57.4668C68.4943 57.4668 68.5992 57.4782 68.7177 57.501C68.8361 57.5192 68.9182 57.5397 68.9637 57.5625ZM71.6667 57.6035V65H70.3952V57.6035H71.6667ZM70.2995 55.6416C70.2995 55.4365 70.3611 55.2633 70.4841 55.1221C70.6117 54.9808 70.7986 54.9102 71.0446 54.9102C71.2862 54.9102 71.4708 54.9808 71.5984 55.1221C71.7305 55.2633 71.7966 55.4365 71.7966 55.6416C71.7966 55.8376 71.7305 56.0062 71.5984 56.1475C71.4708 56.2842 71.2862 56.3525 71.0446 56.3525C70.7986 56.3525 70.6117 56.2842 70.4841 56.1475C70.3611 56.0062 70.2995 55.8376 70.2995 55.6416ZM76.9263 65.1367C76.4114 65.1367 75.9442 65.0501 75.525 64.877C75.1102 64.6992 74.7525 64.4508 74.4517 64.1318C74.1555 63.8128 73.9276 63.4346 73.7681 62.9971C73.6086 62.5596 73.5289 62.0811 73.5289 61.5615V61.2744C73.5289 60.6729 73.6177 60.1374 73.7955 59.668C73.9732 59.194 74.2147 58.793 74.5201 58.4648C74.8254 58.1367 75.1718 57.8883 75.5591 57.7197C75.9465 57.5511 76.3476 57.4668 76.7623 57.4668C77.2909 57.4668 77.7466 57.5579 78.1295 57.7402C78.5168 57.9225 78.8336 58.1777 79.0796 58.5059C79.3257 58.8294 79.508 59.2122 79.6265 59.6543C79.745 60.0918 79.8043 60.5703 79.8043 61.0898V61.6572H74.2808V60.625H78.5396V60.5293C78.5214 60.2012 78.453 59.8822 78.3345 59.5723C78.2206 59.2624 78.0383 59.0072 77.7877 58.8066C77.537 58.6061 77.1952 58.5059 76.7623 58.5059C76.4752 58.5059 76.2108 58.5674 75.9693 58.6904C75.7278 58.8089 75.5204 58.9867 75.3472 59.2236C75.174 59.4606 75.0396 59.75 74.9439 60.0918C74.8482 60.4336 74.8004 60.8278 74.8004 61.2744V61.5615C74.8004 61.9124 74.8482 62.2428 74.9439 62.5527C75.0442 62.8581 75.1877 63.127 75.3746 63.3594C75.566 63.5918 75.7961 63.7741 76.065 63.9062C76.3384 64.0384 76.6483 64.1045 76.9947 64.1045C77.4413 64.1045 77.8196 64.0133 78.1295 63.8311C78.4393 63.6488 78.7105 63.4049 78.9429 63.0996L79.7086 63.708C79.549 63.9495 79.3462 64.1797 79.1002 64.3984C78.8541 64.6172 78.551 64.7949 78.191 64.9316C77.8355 65.0684 77.414 65.1367 76.9263 65.1367ZM85.7475 63.0381C85.7475 62.8558 85.7064 62.6872 85.6244 62.5322C85.5469 62.3727 85.3852 62.2292 85.1391 62.1016C84.8975 61.9694 84.5329 61.8555 84.0453 61.7598C83.6352 61.6732 83.2637 61.5706 82.9311 61.4521C82.6029 61.3337 82.3227 61.1901 82.0902 61.0215C81.8624 60.8529 81.6869 60.6546 81.5639 60.4268C81.4408 60.1989 81.3793 59.9323 81.3793 59.627C81.3793 59.3353 81.4431 59.0596 81.5707 58.7998C81.7029 58.54 81.8874 58.3099 82.1244 58.1094C82.3659 57.9089 82.6553 57.7516 82.9926 57.6377C83.3298 57.5238 83.7058 57.4668 84.1205 57.4668C84.713 57.4668 85.2188 57.5716 85.6381 57.7812C86.0574 57.9909 86.3786 58.2712 86.602 58.6221C86.8253 58.9684 86.9369 59.3535 86.9369 59.7773H85.6723C85.6723 59.5723 85.6107 59.374 85.4877 59.1826C85.3692 58.9867 85.1937 58.8249 84.9613 58.6973C84.7335 58.5697 84.4532 58.5059 84.1205 58.5059C83.7696 58.5059 83.4848 58.5605 83.266 58.6699C83.0518 58.7747 82.8946 58.9092 82.7943 59.0732C82.6986 59.2373 82.6508 59.4105 82.6508 59.5928C82.6508 59.7295 82.6736 59.8525 82.7191 59.9619C82.7693 60.0667 82.8559 60.1647 82.9789 60.2559C83.102 60.3424 83.2751 60.4245 83.4984 60.502C83.7217 60.5794 84.0066 60.6569 84.3529 60.7344C84.959 60.8711 85.4581 61.0352 85.85 61.2266C86.2419 61.418 86.5336 61.6527 86.725 61.9307C86.9164 62.2087 87.0121 62.5459 87.0121 62.9424C87.0121 63.266 86.9437 63.5622 86.807 63.8311C86.6749 64.0999 86.4812 64.3324 86.226 64.5283C85.9753 64.7197 85.6745 64.8701 85.3236 64.9795C84.9773 65.0843 84.5876 65.1367 84.1547 65.1367C83.503 65.1367 82.9516 65.0205 82.5004 64.7881C82.0492 64.5557 81.7074 64.2549 81.475 63.8857C81.2426 63.5166 81.1264 63.127 81.1264 62.7168H82.3979C82.4161 63.0632 82.5163 63.3389 82.6986 63.5439C82.8809 63.7445 83.1042 63.888 83.3686 63.9746C83.6329 64.0566 83.8949 64.0977 84.1547 64.0977C84.501 64.0977 84.7904 64.0521 85.0229 63.9609C85.2598 63.8698 85.4398 63.7445 85.5629 63.585C85.6859 63.4255 85.7475 63.2432 85.7475 63.0381Z" fill="#D5D5D5"/>
<rect width="204" height="40" transform="translate(0 80)" fill="#2F2F2F"/>
<rect y="80" width="204" height="1" fill="#191919"/>
<path d="M24.5107 100.044V103.688C24.3877 103.87 24.1917 104.075 23.9229 104.303C23.654 104.526 23.2826 104.722 22.8086 104.891C22.3392 105.055 21.7331 105.137 20.9902 105.137C20.3841 105.137 19.8258 105.032 19.3154 104.822C18.8096 104.608 18.3698 104.298 17.9961 103.893C17.627 103.482 17.3398 102.986 17.1348 102.402C16.9342 101.814 16.834 101.149 16.834 100.406V99.6338C16.834 98.891 16.9206 98.2279 17.0938 97.6445C17.2715 97.0612 17.5312 96.5667 17.873 96.1611C18.2148 95.751 18.6341 95.4411 19.1309 95.2314C19.6276 95.0173 20.1973 94.9102 20.8398 94.9102C21.6009 94.9102 22.2367 95.0423 22.7471 95.3066C23.262 95.5664 23.6631 95.9264 23.9502 96.3867C24.2419 96.847 24.4287 97.3711 24.5107 97.959H23.1914C23.1322 97.599 23.0137 97.2708 22.8359 96.9746C22.6628 96.6784 22.4144 96.4414 22.0908 96.2637C21.7673 96.0814 21.3503 95.9902 20.8398 95.9902C20.3796 95.9902 19.9808 96.0745 19.6436 96.2432C19.3063 96.4118 19.0283 96.6533 18.8096 96.9678C18.5908 97.2822 18.4268 97.6628 18.3174 98.1094C18.2126 98.556 18.1602 99.0596 18.1602 99.6201V100.406C18.1602 100.98 18.2262 101.493 18.3584 101.944C18.4951 102.396 18.6888 102.781 18.9395 103.1C19.1901 103.414 19.4886 103.653 19.835 103.817C20.1859 103.981 20.5732 104.063 20.9971 104.063C21.4665 104.063 21.847 104.025 22.1387 103.947C22.4303 103.865 22.6582 103.77 22.8223 103.66C22.9863 103.546 23.1117 103.439 23.1982 103.339V101.11H20.8945V100.044H24.5107ZM27.9315 98.7656V105H26.6668V97.6035H27.8973L27.9315 98.7656ZM30.242 97.5625L30.2352 98.7383C30.1304 98.7155 30.0301 98.7018 29.9344 98.6973C29.8433 98.6882 29.7385 98.6836 29.62 98.6836C29.3283 98.6836 29.0708 98.7292 28.8475 98.8203C28.6242 98.9115 28.4351 99.0391 28.2801 99.2031C28.1252 99.3672 28.0021 99.5632 27.911 99.791C27.8244 100.014 27.7674 100.26 27.7401 100.529L27.3846 100.734C27.3846 100.288 27.4279 99.8685 27.5145 99.4766C27.6056 99.0846 27.7446 98.7383 27.9315 98.4375C28.1183 98.1322 28.3553 97.8952 28.6424 97.7266C28.9341 97.5534 29.2804 97.4668 29.6815 97.4668C29.7726 97.4668 29.8774 97.4782 29.9959 97.501C30.1144 97.5192 30.1965 97.5397 30.242 97.5625ZM35.6589 103.735V99.9277C35.6589 99.6361 35.5996 99.3831 35.4811 99.1689C35.3672 98.9502 35.194 98.7816 34.9616 98.6631C34.7292 98.5446 34.4421 98.4854 34.1003 98.4854C33.7813 98.4854 33.501 98.54 33.2595 98.6494C33.0225 98.7588 32.8356 98.9023 32.6989 99.0801C32.5667 99.2578 32.5007 99.4492 32.5007 99.6543H31.236C31.236 99.39 31.3044 99.1279 31.4411 98.8682C31.5778 98.6084 31.7738 98.3737 32.029 98.1641C32.2887 97.9499 32.5986 97.7812 32.9587 97.6582C33.3233 97.5306 33.7289 97.4668 34.1755 97.4668C34.7132 97.4668 35.1872 97.5579 35.5973 97.7402C36.0121 97.9225 36.3356 98.1982 36.568 98.5674C36.805 98.932 36.9235 99.39 36.9235 99.9414V103.387C36.9235 103.633 36.944 103.895 36.985 104.173C37.0306 104.451 37.0967 104.69 37.1833 104.891V105H35.8639C35.8001 104.854 35.75 104.66 35.7136 104.419C35.6771 104.173 35.6589 103.945 35.6589 103.735ZM35.8776 100.516L35.8913 101.404H34.613C34.2529 101.404 33.9317 101.434 33.6491 101.493C33.3665 101.548 33.1296 101.632 32.9382 101.746C32.7468 101.86 32.6009 102.004 32.5007 102.177C32.4004 102.345 32.3503 102.544 32.3503 102.771C32.3503 103.004 32.4027 103.216 32.5075 103.407C32.6123 103.599 32.7695 103.751 32.9792 103.865C33.1934 103.975 33.4554 104.029 33.7653 104.029C34.1527 104.029 34.4945 103.947 34.7907 103.783C35.0869 103.619 35.3216 103.419 35.4948 103.182C35.6725 102.945 35.7682 102.715 35.7819 102.491L36.322 103.1C36.2901 103.291 36.2035 103.503 36.0622 103.735C35.9209 103.968 35.7318 104.191 35.4948 104.405C35.2624 104.615 34.9844 104.79 34.6608 104.932C34.3418 105.068 33.9818 105.137 33.5807 105.137C33.0794 105.137 32.6397 105.039 32.2614 104.843C31.8877 104.647 31.596 104.385 31.3864 104.057C31.1813 103.724 31.0788 103.353 31.0788 102.942C31.0788 102.546 31.1563 102.197 31.3112 101.896C31.4662 101.591 31.6895 101.338 31.9811 101.138C32.2728 100.933 32.6237 100.778 33.0339 100.673C33.444 100.568 33.902 100.516 34.4079 100.516H35.8776ZM40.3374 99.0254V107.844H39.0659V97.6035H40.228L40.3374 99.0254ZM45.3208 101.24V101.384C45.3208 101.922 45.257 102.421 45.1294 102.881C45.0018 103.337 44.815 103.733 44.5689 104.07C44.3273 104.408 44.0288 104.67 43.6734 104.856C43.3179 105.043 42.91 105.137 42.4497 105.137C41.9803 105.137 41.5656 105.059 41.2056 104.904C40.8456 104.749 40.5402 104.524 40.2896 104.228C40.0389 103.931 39.8384 103.576 39.688 103.161C39.5422 102.746 39.4419 102.279 39.3872 101.76V100.994C39.4419 100.447 39.5445 99.9574 39.6948 99.5244C39.8452 99.0915 40.0435 98.7223 40.2896 98.417C40.5402 98.1071 40.8433 97.8724 41.1987 97.7129C41.5542 97.5488 41.9644 97.4668 42.4292 97.4668C42.8941 97.4668 43.3065 97.5579 43.6665 97.7402C44.0265 97.918 44.3296 98.1732 44.5757 98.5059C44.8218 98.8385 45.0064 99.2373 45.1294 99.7021C45.257 100.162 45.3208 100.675 45.3208 101.24ZM44.0493 101.384V101.24C44.0493 100.871 44.0106 100.525 43.9331 100.201C43.8557 99.873 43.7349 99.5859 43.5708 99.3398C43.4113 99.0892 43.2062 98.8932 42.9556 98.752C42.7049 98.6061 42.4064 98.5332 42.0601 98.5332C41.7411 98.5332 41.4631 98.5879 41.2261 98.6973C40.9937 98.8066 40.7954 98.9548 40.6314 99.1416C40.4673 99.3239 40.3329 99.5335 40.228 99.7705C40.1278 100.003 40.0526 100.244 40.0025 100.495V102.266C40.0936 102.585 40.2212 102.885 40.3853 103.168C40.5493 103.446 40.7681 103.672 41.0415 103.845C41.315 104.013 41.659 104.098 42.0737 104.098C42.4155 104.098 42.7095 104.027 42.9556 103.886C43.2062 103.74 43.4113 103.542 43.5708 103.291C43.7349 103.04 43.8557 102.753 43.9331 102.43C44.0106 102.102 44.0493 101.753 44.0493 101.384ZM50.1634 105.137C49.6485 105.137 49.1813 105.05 48.7621 104.877C48.3474 104.699 47.9896 104.451 47.6888 104.132C47.3926 103.813 47.1647 103.435 47.0052 102.997C46.8457 102.56 46.766 102.081 46.766 101.562V101.274C46.766 100.673 46.8548 100.137 47.0326 99.668C47.2103 99.194 47.4518 98.793 47.7572 98.4648C48.0625 98.1367 48.4089 97.8883 48.7962 97.7197C49.1836 97.5511 49.5847 97.4668 49.9994 97.4668C50.528 97.4668 50.9837 97.5579 51.3666 97.7402C51.7539 97.9225 52.0707 98.1777 52.3168 98.5059C52.5629 98.8294 52.7451 99.2122 52.8636 99.6543C52.9821 100.092 53.0414 100.57 53.0414 101.09V101.657H47.5179V100.625H51.7767V100.529C51.7585 100.201 51.6901 99.8822 51.5716 99.5723C51.4577 99.2624 51.2754 99.0072 51.0248 98.8066C50.7741 98.6061 50.4323 98.5059 49.9994 98.5059C49.7123 98.5059 49.4479 98.5674 49.2064 98.6904C48.9649 98.8089 48.7575 98.9867 48.5843 99.2236C48.4112 99.4606 48.2767 99.75 48.181 100.092C48.0853 100.434 48.0375 100.828 48.0375 101.274V101.562C48.0375 101.912 48.0853 102.243 48.181 102.553C48.2813 102.858 48.4248 103.127 48.6117 103.359C48.8031 103.592 49.0332 103.774 49.3021 103.906C49.5755 104.038 49.8854 104.104 50.2318 104.104C50.6784 104.104 51.0567 104.013 51.3666 103.831C51.6765 103.649 51.9476 103.405 52.18 103.1L52.9457 103.708C52.7862 103.95 52.5834 104.18 52.3373 104.398C52.0912 104.617 51.7881 104.795 51.4281 104.932C51.0726 105.068 50.6511 105.137 50.1634 105.137ZM58.9846 103.038C58.9846 102.856 58.9436 102.687 58.8615 102.532C58.784 102.373 58.6223 102.229 58.3762 102.102C58.1346 101.969 57.7701 101.855 57.2824 101.76C56.8723 101.673 56.5008 101.571 56.1682 101.452C55.84 101.334 55.5598 101.19 55.3273 101.021C55.0995 100.853 54.924 100.655 54.801 100.427C54.6779 100.199 54.6164 99.9323 54.6164 99.627C54.6164 99.3353 54.6802 99.0596 54.8078 98.7998C54.94 98.54 55.1245 98.3099 55.3615 98.1094C55.6031 97.9089 55.8924 97.7516 56.2297 97.6377C56.5669 97.5238 56.9429 97.4668 57.3576 97.4668C57.9501 97.4668 58.4559 97.5716 58.8752 97.7812C59.2945 97.9909 59.6158 98.2712 59.8391 98.6221C60.0624 98.9684 60.174 99.3535 60.174 99.7773H58.9094C58.9094 99.5723 58.8479 99.374 58.7248 99.1826C58.6063 98.9867 58.4309 98.8249 58.1984 98.6973C57.9706 98.5697 57.6903 98.5059 57.3576 98.5059C57.0067 98.5059 56.7219 98.5605 56.5031 98.6699C56.2889 98.7747 56.1317 98.9092 56.0314 99.0732C55.9357 99.2373 55.8879 99.4105 55.8879 99.5928C55.8879 99.7295 55.9107 99.8525 55.9562 99.9619C56.0064 100.067 56.093 100.165 56.216 100.256C56.3391 100.342 56.5122 100.424 56.7355 100.502C56.9589 100.579 57.2437 100.657 57.59 100.734C58.1962 100.871 58.6952 101.035 59.0871 101.227C59.479 101.418 59.7707 101.653 59.9621 101.931C60.1535 102.209 60.2492 102.546 60.2492 102.942C60.2492 103.266 60.1809 103.562 60.0441 103.831C59.912 104.1 59.7183 104.332 59.4631 104.528C59.2124 104.72 58.9117 104.87 58.5607 104.979C58.2144 105.084 57.8247 105.137 57.3918 105.137C56.7401 105.137 56.1887 105.021 55.7375 104.788C55.2863 104.556 54.9445 104.255 54.7121 103.886C54.4797 103.517 54.3635 103.127 54.3635 102.717H55.635C55.6532 103.063 55.7534 103.339 55.9357 103.544C56.118 103.744 56.3413 103.888 56.6057 103.975C56.87 104.057 57.132 104.098 57.3918 104.098C57.7382 104.098 58.0275 104.052 58.26 103.961C58.4969 103.87 58.677 103.744 58.8 103.585C58.923 103.425 58.9846 103.243 58.9846 103.038Z" fill="#D5D5D5"/>
<rect width="204" height="40" transform="translate(0 120)" fill="#2F2F2F"/>
<rect y="120" width="204" height="1" fill="#191919"/>
<path d="M24.8184 139.709V140.338C24.8184 141.085 24.7249 141.755 24.5381 142.348C24.3512 142.94 24.0824 143.444 23.7314 143.858C23.3805 144.273 22.959 144.59 22.4668 144.809C21.9792 145.027 21.4323 145.137 20.8262 145.137C20.2383 145.137 19.6982 145.027 19.2061 144.809C18.7184 144.59 18.2946 144.273 17.9346 143.858C17.5791 143.444 17.3034 142.94 17.1074 142.348C16.9115 141.755 16.8135 141.085 16.8135 140.338V139.709C16.8135 138.962 16.9092 138.294 17.1006 137.706C17.2965 137.114 17.5723 136.61 17.9277 136.195C18.2832 135.776 18.7048 135.457 19.1924 135.238C19.6846 135.02 20.2246 134.91 20.8125 134.91C21.4186 134.91 21.9655 135.02 22.4531 135.238C22.9453 135.457 23.3669 135.776 23.7178 136.195C24.0732 136.61 24.3444 137.114 24.5312 137.706C24.7227 138.294 24.8184 138.962 24.8184 139.709ZM23.5127 140.338V139.695C23.5127 139.103 23.4512 138.579 23.3281 138.123C23.2096 137.667 23.0342 137.285 22.8018 136.975C22.5693 136.665 22.2845 136.43 21.9473 136.271C21.6146 136.111 21.2363 136.031 20.8125 136.031C20.4023 136.031 20.0309 136.111 19.6982 136.271C19.3701 136.43 19.0876 136.665 18.8506 136.975C18.6182 137.285 18.4382 137.667 18.3105 138.123C18.1829 138.579 18.1191 139.103 18.1191 139.695V140.338C18.1191 140.935 18.1829 141.464 18.3105 141.924C18.4382 142.38 18.6204 142.765 18.8574 143.079C19.099 143.389 19.3838 143.624 19.7119 143.783C20.0446 143.943 20.416 144.022 20.8262 144.022C21.2546 144.022 21.6351 143.943 21.9678 143.783C22.3005 143.624 22.5807 143.389 22.8086 143.079C23.041 142.765 23.2165 142.38 23.335 141.924C23.4535 141.464 23.5127 140.935 23.5127 140.338ZM28.0272 138.766V145H26.7625V137.604H27.993L28.0272 138.766ZM30.3377 137.562L30.3309 138.738C30.2261 138.715 30.1258 138.702 30.0301 138.697C29.939 138.688 29.8342 138.684 29.7157 138.684C29.424 138.684 29.1665 138.729 28.9432 138.82C28.7199 138.911 28.5308 139.039 28.3758 139.203C28.2209 139.367 28.0978 139.563 28.0067 139.791C27.9201 140.014 27.8631 140.26 27.8358 140.529L27.4803 140.734C27.4803 140.288 27.5236 139.868 27.6102 139.477C27.7013 139.085 27.8403 138.738 28.0272 138.438C28.214 138.132 28.451 137.895 28.7381 137.727C29.0298 137.553 29.3761 137.467 29.7772 137.467C29.8683 137.467 29.9732 137.478 30.0916 137.501C30.2101 137.519 30.2922 137.54 30.3377 137.562ZM35.7546 143.735V139.928C35.7546 139.636 35.6953 139.383 35.5768 139.169C35.4629 138.95 35.2897 138.782 35.0573 138.663C34.8249 138.545 34.5378 138.485 34.196 138.485C33.877 138.485 33.5967 138.54 33.3552 138.649C33.1182 138.759 32.9313 138.902 32.7946 139.08C32.6624 139.258 32.5964 139.449 32.5964 139.654H31.3317C31.3317 139.39 31.4001 139.128 31.5368 138.868C31.6735 138.608 31.8695 138.374 32.1247 138.164C32.3845 137.95 32.6943 137.781 33.0544 137.658C33.419 137.531 33.8246 137.467 34.2712 137.467C34.8089 137.467 35.2829 137.558 35.693 137.74C36.1078 137.923 36.4313 138.198 36.6637 138.567C36.9007 138.932 37.0192 139.39 37.0192 139.941V143.387C37.0192 143.633 37.0397 143.895 37.0807 144.173C37.1263 144.451 37.1924 144.69 37.279 144.891V145H35.9596C35.8958 144.854 35.8457 144.66 35.8093 144.419C35.7728 144.173 35.7546 143.945 35.7546 143.735ZM35.9733 140.516L35.987 141.404H34.7087C34.3486 141.404 34.0274 141.434 33.7448 141.493C33.4623 141.548 33.2253 141.632 33.0339 141.746C32.8425 141.86 32.6966 142.004 32.5964 142.177C32.4961 142.345 32.446 142.544 32.446 142.771C32.446 143.004 32.4984 143.216 32.6032 143.407C32.708 143.599 32.8652 143.751 33.0749 143.865C33.2891 143.975 33.5511 144.029 33.861 144.029C34.2484 144.029 34.5902 143.947 34.8864 143.783C35.1826 143.619 35.4173 143.419 35.5905 143.182C35.7682 142.945 35.8639 142.715 35.8776 142.491L36.4177 143.1C36.3858 143.291 36.2992 143.503 36.1579 143.735C36.0166 143.968 35.8275 144.191 35.5905 144.405C35.3581 144.615 35.0801 144.79 34.7565 144.932C34.4375 145.068 34.0775 145.137 33.6764 145.137C33.1751 145.137 32.7354 145.039 32.3571 144.843C31.9834 144.647 31.6917 144.385 31.4821 144.057C31.277 143.724 31.1745 143.353 31.1745 142.942C31.1745 142.546 31.252 142.197 31.4069 141.896C31.5619 141.591 31.7852 141.338 32.0768 141.138C32.3685 140.933 32.7194 140.778 33.1296 140.673C33.5397 140.568 33.9977 140.516 34.5036 140.516H35.9733ZM40.4331 139.183V145H39.1685V137.604H40.3648L40.4331 139.183ZM40.1323 141.021L39.606 141.001C39.6105 140.495 39.6857 140.028 39.8316 139.6C39.9774 139.167 40.1825 138.791 40.4468 138.472C40.7111 138.153 41.0256 137.907 41.3902 137.733C41.7593 137.556 42.1672 137.467 42.6138 137.467C42.9784 137.467 43.3065 137.517 43.5982 137.617C43.8898 137.713 44.1382 137.868 44.3433 138.082C44.5529 138.296 44.7124 138.574 44.8218 138.916C44.9312 139.253 44.9859 139.666 44.9859 140.153V145H43.7144V140.14C43.7144 139.752 43.6574 139.442 43.5435 139.21C43.4295 138.973 43.2632 138.802 43.0445 138.697C42.8257 138.588 42.5568 138.533 42.2378 138.533C41.9234 138.533 41.6362 138.599 41.3765 138.731C41.1213 138.864 40.9002 139.046 40.7134 139.278C40.5311 139.511 40.3876 139.777 40.2827 140.078C40.1825 140.374 40.1323 140.689 40.1323 141.021ZM51.8587 137.604H53.0072V144.843C53.0072 145.494 52.875 146.05 52.6107 146.511C52.3464 146.971 51.9772 147.32 51.5033 147.557C51.0339 147.798 50.4916 147.919 49.8763 147.919C49.6211 147.919 49.3203 147.878 48.974 147.796C48.6322 147.718 48.2949 147.584 47.9623 147.393C47.6341 147.206 47.3584 146.953 47.1351 146.634L47.7982 145.882C48.1081 146.256 48.4317 146.515 48.7689 146.661C49.1107 146.807 49.4479 146.88 49.7806 146.88C50.1817 146.88 50.528 146.805 50.8197 146.654C51.1114 146.504 51.3369 146.281 51.4964 145.984C51.6605 145.693 51.7425 145.333 51.7425 144.904V139.23L51.8587 137.604ZM46.766 141.384V141.24C46.766 140.675 46.8321 140.162 46.9642 139.702C47.1009 139.237 47.2946 138.839 47.5453 138.506C47.8005 138.173 48.1081 137.918 48.4681 137.74C48.8282 137.558 49.2337 137.467 49.6849 137.467C50.1498 137.467 50.5554 137.549 50.9017 137.713C51.2526 137.872 51.5489 138.107 51.7904 138.417C52.0365 138.722 52.2302 139.091 52.3714 139.524C52.5127 139.957 52.6107 140.447 52.6654 140.994V141.623C52.6153 142.165 52.5173 142.653 52.3714 143.086C52.2302 143.519 52.0365 143.888 51.7904 144.193C51.5489 144.499 51.2526 144.733 50.9017 144.897C50.5508 145.057 50.1407 145.137 49.6712 145.137C49.2292 145.137 48.8282 145.043 48.4681 144.856C48.1127 144.67 47.8073 144.408 47.5521 144.07C47.2969 143.733 47.1009 143.337 46.9642 142.881C46.8321 142.421 46.766 141.922 46.766 141.384ZM48.0306 141.24V141.384C48.0306 141.753 48.0671 142.099 48.14 142.423C48.2175 142.746 48.3337 143.031 48.4886 143.277C48.6481 143.523 48.8509 143.717 49.097 143.858C49.3431 143.995 49.6371 144.063 49.9789 144.063C50.3981 144.063 50.7445 143.975 51.0179 143.797C51.2914 143.619 51.5078 143.384 51.6673 143.093C51.8314 142.801 51.959 142.484 52.0502 142.143V140.495C52 140.244 51.9226 140.003 51.8177 139.771C51.7175 139.534 51.5853 139.324 51.4212 139.142C51.2617 138.955 51.0635 138.807 50.8265 138.697C50.5895 138.588 50.3115 138.533 49.9925 138.533C49.6462 138.533 49.3477 138.606 49.097 138.752C48.8509 138.893 48.6481 139.089 48.4886 139.34C48.3337 139.586 48.2175 139.873 48.14 140.201C48.0671 140.525 48.0306 140.871 48.0306 141.24ZM58.1574 145.137C57.6424 145.137 57.1753 145.05 56.7561 144.877C56.3413 144.699 55.9836 144.451 55.6828 144.132C55.3866 143.813 55.1587 143.435 54.9992 142.997C54.8397 142.56 54.76 142.081 54.76 141.562V141.274C54.76 140.673 54.8488 140.137 55.0266 139.668C55.2043 139.194 55.4458 138.793 55.7512 138.465C56.0565 138.137 56.4029 137.888 56.7902 137.72C57.1776 137.551 57.5786 137.467 57.9934 137.467C58.522 137.467 58.9777 137.558 59.3605 137.74C59.7479 137.923 60.0646 138.178 60.3107 138.506C60.5568 138.829 60.7391 139.212 60.8576 139.654C60.9761 140.092 61.0354 140.57 61.0354 141.09V141.657H55.5119V140.625H59.7707V140.529C59.7525 140.201 59.6841 139.882 59.5656 139.572C59.4517 139.262 59.2694 139.007 59.0187 138.807C58.7681 138.606 58.4263 138.506 57.9934 138.506C57.7062 138.506 57.4419 138.567 57.2004 138.69C56.9589 138.809 56.7515 138.987 56.5783 139.224C56.4051 139.461 56.2707 139.75 56.175 140.092C56.0793 140.434 56.0314 140.828 56.0314 141.274V141.562C56.0314 141.912 56.0793 142.243 56.175 142.553C56.2753 142.858 56.4188 143.127 56.6057 143.359C56.7971 143.592 57.0272 143.774 57.2961 143.906C57.5695 144.038 57.8794 144.104 58.2258 144.104C58.6724 144.104 59.0507 144.013 59.3605 143.831C59.6704 143.649 59.9416 143.405 60.174 143.1L60.9396 143.708C60.7801 143.95 60.5773 144.18 60.3312 144.398C60.0852 144.617 59.7821 144.795 59.4221 144.932C59.0666 145.068 58.6451 145.137 58.1574 145.137ZM66.9786 143.038C66.9786 142.856 66.9375 142.687 66.8555 142.532C66.778 142.373 66.6162 142.229 66.3702 142.102C66.1286 141.969 65.764 141.855 65.2764 141.76C64.8662 141.673 64.4948 141.571 64.1621 141.452C63.834 141.334 63.5537 141.19 63.3213 141.021C63.0935 140.853 62.918 140.655 62.795 140.427C62.6719 140.199 62.6104 139.932 62.6104 139.627C62.6104 139.335 62.6742 139.06 62.8018 138.8C62.934 138.54 63.1185 138.31 63.3555 138.109C63.597 137.909 63.8864 137.752 64.2237 137.638C64.5609 137.524 64.9369 137.467 65.3516 137.467C65.944 137.467 66.4499 137.572 66.8692 137.781C67.2884 137.991 67.6097 138.271 67.833 138.622C68.0564 138.968 68.168 139.354 68.168 139.777H66.9034C66.9034 139.572 66.8418 139.374 66.7188 139.183C66.6003 138.987 66.4248 138.825 66.1924 138.697C65.9646 138.57 65.6843 138.506 65.3516 138.506C65.0007 138.506 64.7159 138.561 64.4971 138.67C64.2829 138.775 64.1257 138.909 64.0254 139.073C63.9297 139.237 63.8819 139.41 63.8819 139.593C63.8819 139.729 63.9047 139.853 63.9502 139.962C64.0004 140.067 64.087 140.165 64.21 140.256C64.333 140.342 64.5062 140.424 64.7295 140.502C64.9528 140.579 65.2377 140.657 65.584 140.734C66.1901 140.871 66.6892 141.035 67.0811 141.227C67.473 141.418 67.7647 141.653 67.9561 141.931C68.1475 142.209 68.2432 142.546 68.2432 142.942C68.2432 143.266 68.1748 143.562 68.0381 143.831C67.906 144.1 67.7123 144.332 67.4571 144.528C67.2064 144.72 66.9056 144.87 66.5547 144.979C66.2084 145.084 65.8187 145.137 65.3858 145.137C64.7341 145.137 64.1827 145.021 63.7315 144.788C63.2803 144.556 62.9385 144.255 62.7061 143.886C62.4737 143.517 62.3575 143.127 62.3575 142.717H63.6289C63.6472 143.063 63.7474 143.339 63.9297 143.544C64.112 143.744 64.3353 143.888 64.5996 143.975C64.864 144.057 65.126 144.098 65.3858 144.098C65.7321 144.098 66.0215 144.052 66.2539 143.961C66.4909 143.87 66.6709 143.744 66.794 143.585C66.917 143.425 66.9786 143.243 66.9786 143.038Z" fill="#D5D5D5"/>
<rect width="204" height="40" transform="translate(205)" fill="#1F1F1F"/>
<path d="M227.774 21.7256H229.654C229.604 22.391 229.42 22.9811 229.101 23.4961C228.782 24.0065 228.337 24.4076 227.768 24.6992C227.198 24.9909 226.507 25.1367 225.696 25.1367C225.072 25.1367 224.509 25.0273 224.008 24.8086C223.511 24.5853 223.085 24.2686 222.729 23.8584C222.379 23.4437 222.11 22.9469 221.923 22.3682C221.736 21.7848 221.643 21.1309 221.643 20.4062V19.6475C221.643 18.9229 221.738 18.2689 221.93 17.6855C222.121 17.1022 222.395 16.6055 222.75 16.1953C223.11 15.7806 223.541 15.4616 224.042 15.2383C224.548 15.015 225.113 14.9033 225.737 14.9033C226.549 14.9033 227.234 15.0537 227.795 15.3545C228.355 15.6507 228.791 16.0586 229.101 16.5781C229.41 17.0977 229.597 17.6947 229.661 18.3691H227.781C227.745 17.9499 227.654 17.5944 227.508 17.3027C227.367 17.0111 227.152 16.79 226.865 16.6396C226.583 16.4847 226.207 16.4072 225.737 16.4072C225.373 16.4072 225.051 16.4756 224.773 16.6123C224.5 16.749 224.272 16.9541 224.09 17.2275C223.908 17.4964 223.771 17.8337 223.68 18.2393C223.589 18.6403 223.543 19.1051 223.543 19.6338V20.4062C223.543 20.9121 223.584 21.3656 223.666 21.7666C223.748 22.1676 223.876 22.5072 224.049 22.7852C224.222 23.0632 224.445 23.2751 224.719 23.4209C224.992 23.5667 225.318 23.6396 225.696 23.6396C226.157 23.6396 226.53 23.5667 226.817 23.4209C227.109 23.2751 227.33 23.0609 227.48 22.7783C227.635 22.4958 227.733 22.1449 227.774 21.7256ZM230.812 21.377V21.2334C230.812 20.6911 230.89 20.1921 231.045 19.7363C231.2 19.276 231.425 18.8773 231.722 18.54C232.018 18.2028 232.38 17.9408 232.808 17.7539C233.237 17.5625 233.724 17.4668 234.271 17.4668C234.827 17.4668 235.32 17.5625 235.748 17.7539C236.181 17.9408 236.545 18.2028 236.842 18.54C237.138 18.8773 237.363 19.276 237.518 19.7363C237.673 20.1921 237.751 20.6911 237.751 21.2334V21.377C237.751 21.9147 237.673 22.4137 237.518 22.874C237.363 23.3298 237.138 23.7285 236.842 24.0703C236.545 24.4076 236.183 24.6696 235.755 24.8564C235.326 25.0433 234.836 25.1367 234.285 25.1367C233.738 25.1367 233.248 25.0433 232.815 24.8564C232.382 24.6696 232.018 24.4076 231.722 24.0703C231.425 23.7285 231.2 23.3298 231.045 22.874C230.89 22.4137 230.812 21.9147 230.812 21.377ZM232.617 21.2334V21.377C232.617 21.7005 232.649 22.0036 232.713 22.2861C232.777 22.5687 232.875 22.8171 233.007 23.0312C233.139 23.2454 233.31 23.4141 233.519 23.5371C233.734 23.6556 233.989 23.7148 234.285 23.7148C234.577 23.7148 234.827 23.6556 235.037 23.5371C235.247 23.4141 235.417 23.2454 235.55 23.0312C235.686 22.8171 235.787 22.5687 235.85 22.2861C235.914 22.0036 235.946 21.7005 235.946 21.377V21.2334C235.946 20.9144 235.914 20.6159 235.85 20.3379C235.787 20.0553 235.686 19.807 235.55 19.5928C235.417 19.374 235.244 19.2031 235.03 19.0801C234.82 18.9525 234.568 18.8887 234.271 18.8887C233.98 18.8887 233.729 18.9525 233.519 19.0801C233.31 19.2031 233.139 19.374 233.007 19.5928C232.875 19.807 232.777 20.0553 232.713 20.3379C232.649 20.6159 232.617 20.9144 232.617 21.2334ZM241.137 14.5V25H239.326V14.5H241.137ZM242.699 21.377V21.2334C242.699 20.6911 242.776 20.1921 242.931 19.7363C243.086 19.276 243.312 18.8773 243.608 18.54C243.904 18.2028 244.266 17.9408 244.695 17.7539C245.123 17.5625 245.611 17.4668 246.158 17.4668C246.714 17.4668 247.206 17.5625 247.634 17.7539C248.067 17.9408 248.432 18.2028 248.728 18.54C249.024 18.8773 249.25 19.276 249.405 19.7363C249.56 20.1921 249.637 20.6911 249.637 21.2334V21.377C249.637 21.9147 249.56 22.4137 249.405 22.874C249.25 23.3298 249.024 23.7285 248.728 24.0703C248.432 24.4076 248.07 24.6696 247.641 24.8564C247.213 25.0433 246.723 25.1367 246.171 25.1367C245.625 25.1367 245.135 25.0433 244.702 24.8564C244.269 24.6696 243.904 24.4076 243.608 24.0703C243.312 23.7285 243.086 23.3298 242.931 22.874C242.776 22.4137 242.699 21.9147 242.699 21.377ZM244.503 21.2334V21.377C244.503 21.7005 244.535 22.0036 244.599 22.2861C244.663 22.5687 244.761 22.8171 244.893 23.0312C245.025 23.2454 245.196 23.4141 245.406 23.5371C245.62 23.6556 245.875 23.7148 246.171 23.7148C246.463 23.7148 246.714 23.6556 246.923 23.5371C247.133 23.4141 247.304 23.2454 247.436 23.0312C247.573 22.8171 247.673 22.5687 247.737 22.2861C247.801 22.0036 247.833 21.7005 247.833 21.377V21.2334C247.833 20.9144 247.801 20.6159 247.737 20.3379C247.673 20.0553 247.573 19.807 247.436 19.5928C247.304 19.374 247.131 19.2031 246.917 19.0801C246.707 18.9525 246.454 18.8887 246.158 18.8887C245.866 18.8887 245.615 18.9525 245.406 19.0801C245.196 19.2031 245.025 19.374 244.893 19.5928C244.761 19.807 244.663 20.0553 244.599 20.3379C244.535 20.6159 244.503 20.9144 244.503 21.2334ZM252.914 19.1143V25H251.11V17.6035H252.819L252.914 19.1143ZM255.163 17.5557L255.136 19.2373C255.036 19.2191 254.922 19.2054 254.794 19.1963C254.671 19.1872 254.555 19.1826 254.446 19.1826C254.168 19.1826 253.924 19.2214 253.714 19.2988C253.505 19.3717 253.329 19.4788 253.188 19.6201C253.051 19.7614 252.946 19.9346 252.873 20.1396C252.8 20.3402 252.759 20.568 252.75 20.8232L252.361 20.7754C252.361 20.306 252.409 19.8708 252.504 19.4697C252.6 19.0687 252.739 18.7178 252.921 18.417C253.104 18.1162 253.331 17.8838 253.605 17.7197C253.883 17.5511 254.202 17.4668 254.562 17.4668C254.662 17.4668 254.769 17.4759 254.883 17.4941C255.002 17.5078 255.095 17.5283 255.163 17.5557Z" fill="#C9C9C9"/>
<rect width="204" height="40" transform="translate(205 40)" fill="#2F2F2F"/>
<rect x="205" y="40" width="204" height="1" fill="#1F1F1F"/>
<path d="M225.703 60.3447H223.181L223.167 59.2852H225.457C225.835 59.2852 226.166 59.2214 226.448 59.0938C226.731 58.9661 226.95 58.7839 227.104 58.5469C227.264 58.3053 227.344 58.0182 227.344 57.6855C227.344 57.321 227.273 57.0247 227.132 56.7969C226.995 56.5645 226.783 56.3958 226.496 56.291C226.214 56.1816 225.854 56.127 225.416 56.127H223.475V65H222.155V55.0469H225.416C225.926 55.0469 226.382 55.0993 226.783 55.2041C227.184 55.3044 227.524 55.4639 227.802 55.6826C228.084 55.8968 228.299 56.1702 228.444 56.5029C228.59 56.8356 228.663 57.2344 228.663 57.6992C228.663 58.1094 228.558 58.4808 228.349 58.8135C228.139 59.1416 227.847 59.4105 227.474 59.6201C227.104 59.8298 226.672 59.9642 226.175 60.0234L225.703 60.3447ZM225.642 65H222.661L223.406 63.9268H225.642C226.061 63.9268 226.416 63.8538 226.708 63.708C227.004 63.5622 227.23 63.3571 227.385 63.0928C227.54 62.8239 227.617 62.5072 227.617 62.1426C227.617 61.7734 227.551 61.4544 227.419 61.1855C227.287 60.9167 227.079 60.7093 226.797 60.5635C226.514 60.4176 226.15 60.3447 225.703 60.3447H223.823L223.837 59.2852H226.407L226.688 59.668C227.166 59.709 227.572 59.8457 227.904 60.0781C228.237 60.306 228.49 60.5977 228.663 60.9531C228.841 61.3086 228.93 61.7005 228.93 62.1289C228.93 62.7487 228.793 63.2728 228.52 63.7012C228.251 64.125 227.87 64.4486 227.378 64.6719C226.886 64.8906 226.307 65 225.642 65ZM232.221 54.5V65H230.949V54.5H232.221ZM238.936 63.291V57.6035H240.208V65H238.998L238.936 63.291ZM239.175 61.7324L239.702 61.7188C239.702 62.2109 239.649 62.6667 239.545 63.0859C239.444 63.5007 239.28 63.8607 239.052 64.166C238.825 64.4714 238.526 64.7106 238.157 64.8838C237.788 65.0524 237.339 65.1367 236.81 65.1367C236.45 65.1367 236.12 65.0843 235.819 64.9795C235.523 64.8747 235.268 64.7129 235.053 64.4941C234.839 64.2754 234.673 63.9906 234.554 63.6396C234.44 63.2887 234.383 62.8672 234.383 62.375V57.6035H235.648V62.3887C235.648 62.7214 235.685 62.9971 235.757 63.2158C235.835 63.43 235.938 63.6009 236.065 63.7285C236.197 63.8516 236.343 63.9382 236.503 63.9883C236.667 64.0384 236.835 64.0635 237.008 64.0635C237.546 64.0635 237.972 63.9609 238.287 63.7559C238.601 63.5462 238.827 63.266 238.964 62.915C239.105 62.5596 239.175 62.1654 239.175 61.7324ZM245.365 65.1367C244.85 65.1367 244.383 65.0501 243.963 64.877C243.549 64.6992 243.191 64.4508 242.89 64.1318C242.594 63.8128 242.366 63.4346 242.207 62.9971C242.047 62.5596 241.967 62.0811 241.967 61.5615V61.2744C241.967 60.6729 242.056 60.1374 242.234 59.668C242.412 59.194 242.653 58.793 242.959 58.4648C243.264 58.1367 243.61 57.8883 243.998 57.7197C244.385 57.5511 244.786 57.4668 245.201 57.4668C245.729 57.4668 246.185 57.5579 246.568 57.7402C246.955 57.9225 247.272 58.1777 247.518 58.5059C247.764 58.8294 247.946 59.2122 248.065 59.6543C248.183 60.0918 248.243 60.5703 248.243 61.0898V61.6572H242.719V60.625H246.978V60.5293C246.96 60.2012 246.891 59.8822 246.773 59.5723C246.659 59.2624 246.477 59.0072 246.226 58.8066C245.975 58.6061 245.634 58.5059 245.201 58.5059C244.914 58.5059 244.649 58.5674 244.408 58.6904C244.166 58.8089 243.959 58.9867 243.786 59.2236C243.612 59.4606 243.478 59.75 243.382 60.0918C243.287 60.4336 243.239 60.8278 243.239 61.2744V61.5615C243.239 61.9124 243.287 62.2428 243.382 62.5527C243.483 62.8581 243.626 63.127 243.813 63.3594C244.004 63.5918 244.235 63.7741 244.503 63.9062C244.777 64.0384 245.087 64.1045 245.433 64.1045C245.88 64.1045 246.258 64.0133 246.568 63.8311C246.878 63.6488 247.149 63.4049 247.381 63.0996L248.147 63.708C247.987 63.9495 247.785 64.1797 247.539 64.3984C247.292 64.6172 246.989 64.7949 246.629 64.9316C246.274 65.0684 245.852 65.1367 245.365 65.1367Z" fill="#D5D5D5"/>
<rect width="204" height="40" transform="translate(205 80)" fill="#2F2F2F"/>
<rect x="205" y="80" width="204" height="1" fill="#1F1F1F"/>
<path d="M225.826 101.097H223.167V100.023H225.826C226.341 100.023 226.758 99.9414 227.077 99.7773C227.396 99.6133 227.629 99.3854 227.774 99.0938C227.925 98.8021 228 98.4694 228 98.0957C228 97.7539 227.925 97.4326 227.774 97.1318C227.629 96.8311 227.396 96.5895 227.077 96.4072C226.758 96.2204 226.341 96.127 225.826 96.127H223.475V105H222.155V95.0469H225.826C226.578 95.0469 227.214 95.1768 227.733 95.4365C228.253 95.6963 228.647 96.0563 228.916 96.5166C229.185 96.9723 229.319 97.4941 229.319 98.082C229.319 98.7201 229.185 99.2646 228.916 99.7158C228.647 100.167 228.253 100.511 227.733 100.748C227.214 100.98 226.578 101.097 225.826 101.097ZM235.481 103.291V97.6035H236.753V105H235.543L235.481 103.291ZM235.721 101.732L236.247 101.719C236.247 102.211 236.195 102.667 236.09 103.086C235.989 103.501 235.825 103.861 235.597 104.166C235.37 104.471 235.071 104.711 234.702 104.884C234.333 105.052 233.884 105.137 233.355 105.137C232.995 105.137 232.665 105.084 232.364 104.979C232.068 104.875 231.813 104.713 231.598 104.494C231.384 104.275 231.218 103.991 231.099 103.64C230.986 103.289 230.929 102.867 230.929 102.375V97.6035H232.193V102.389C232.193 102.721 232.23 102.997 232.303 103.216C232.38 103.43 232.483 103.601 232.61 103.729C232.742 103.852 232.888 103.938 233.048 103.988C233.212 104.038 233.38 104.063 233.554 104.063C234.091 104.063 234.517 103.961 234.832 103.756C235.146 103.546 235.372 103.266 235.509 102.915C235.65 102.56 235.721 102.165 235.721 101.732ZM240.105 98.7656V105H238.841V97.6035H240.071L240.105 98.7656ZM242.416 97.5625L242.409 98.7383C242.304 98.7155 242.204 98.7018 242.108 98.6973C242.017 98.6882 241.912 98.6836 241.794 98.6836C241.502 98.6836 241.244 98.7292 241.021 98.8203C240.798 98.9115 240.609 99.0391 240.454 99.2031C240.299 99.3672 240.176 99.5632 240.085 99.791C239.998 100.014 239.941 100.26 239.914 100.529L239.558 100.734C239.558 100.288 239.602 99.8685 239.688 99.4766C239.779 99.0846 239.918 98.7383 240.105 98.4375C240.292 98.1322 240.529 97.8952 240.816 97.7266C241.108 97.5534 241.454 97.4668 241.855 97.4668C241.946 97.4668 242.051 97.4782 242.17 97.501C242.288 97.5192 242.37 97.5397 242.416 97.5625ZM245.009 99.0254V107.844H243.738V97.6035H244.9L245.009 99.0254ZM249.993 101.24V101.384C249.993 101.922 249.929 102.421 249.801 102.881C249.674 103.337 249.487 103.733 249.241 104.07C248.999 104.408 248.701 104.67 248.345 104.856C247.99 105.043 247.582 105.137 247.122 105.137C246.652 105.137 246.237 105.059 245.877 104.904C245.517 104.749 245.212 104.524 244.961 104.228C244.711 103.931 244.51 103.576 244.36 103.161C244.214 102.746 244.114 102.279 244.059 101.76V100.994C244.114 100.447 244.216 99.9574 244.367 99.5244C244.517 99.0915 244.715 98.7223 244.961 98.417C245.212 98.1071 245.515 97.8724 245.871 97.7129C246.226 97.5488 246.636 97.4668 247.101 97.4668C247.566 97.4668 247.978 97.5579 248.338 97.7402C248.698 97.918 249.001 98.1732 249.248 98.5059C249.494 98.8385 249.678 99.2373 249.801 99.7021C249.929 100.162 249.993 100.675 249.993 101.24ZM248.721 101.384V101.24C248.721 100.871 248.682 100.525 248.605 100.201C248.528 99.873 248.407 99.5859 248.243 99.3398C248.083 99.0892 247.878 98.8932 247.627 98.752C247.377 98.6061 247.078 98.5332 246.732 98.5332C246.413 98.5332 246.135 98.5879 245.898 98.6973C245.666 98.8066 245.467 98.9548 245.303 99.1416C245.139 99.3239 245.005 99.5335 244.9 99.7705C244.8 100.003 244.724 100.244 244.674 100.495V102.266C244.765 102.585 244.893 102.885 245.057 103.168C245.221 103.446 245.44 103.672 245.713 103.845C245.987 104.013 246.331 104.098 246.746 104.098C247.087 104.098 247.381 104.027 247.627 103.886C247.878 103.74 248.083 103.542 248.243 103.291C248.407 103.04 248.528 102.753 248.605 102.43C248.682 102.102 248.721 101.753 248.721 101.384ZM253.14 94.5V105H251.869V94.5H253.14ZM258.4 105.137C257.885 105.137 257.418 105.05 256.998 104.877C256.584 104.699 256.226 104.451 255.925 104.132C255.629 103.813 255.401 103.435 255.241 102.997C255.082 102.56 255.002 102.081 255.002 101.562V101.274C255.002 100.673 255.091 100.137 255.269 99.668C255.446 99.194 255.688 98.793 255.993 98.4648C256.299 98.1367 256.645 97.8883 257.032 97.7197C257.42 97.5511 257.821 97.4668 258.236 97.4668C258.764 97.4668 259.22 97.5579 259.603 97.7402C259.99 97.9225 260.307 98.1777 260.553 98.5059C260.799 98.8294 260.981 99.2122 261.1 99.6543C261.218 100.092 261.278 100.57 261.278 101.09V101.657H255.754V100.625H260.013V100.529C259.995 100.201 259.926 99.8822 259.808 99.5723C259.694 99.2624 259.512 99.0072 259.261 98.8066C259.01 98.6061 258.668 98.5059 258.236 98.5059C257.948 98.5059 257.684 98.5674 257.443 98.6904C257.201 98.8089 256.994 98.9867 256.821 99.2236C256.647 99.4606 256.513 99.75 256.417 100.092C256.321 100.434 256.274 100.828 256.274 101.274V101.562C256.274 101.912 256.321 102.243 256.417 102.553C256.517 102.858 256.661 103.127 256.848 103.359C257.039 103.592 257.269 103.774 257.538 103.906C257.812 104.038 258.122 104.104 258.468 104.104C258.915 104.104 259.293 104.013 259.603 103.831C259.913 103.649 260.184 103.405 260.416 103.1L261.182 103.708C261.022 103.95 260.82 104.18 260.573 104.398C260.327 104.617 260.024 104.795 259.664 104.932C259.309 105.068 258.887 105.137 258.4 105.137Z" fill="#D5D5D5"/>
<rect width="204" height="40" transform="translate(205 120)" fill="#2F2F2F"/>
<rect x="205" y="120" width="204" height="1" fill="#1F1F1F"/>
<path d="M229.818 139.709V140.338C229.818 141.085 229.725 141.755 229.538 142.348C229.351 142.94 229.082 143.444 228.731 143.858C228.381 144.273 227.959 144.59 227.467 144.809C226.979 145.027 226.432 145.137 225.826 145.137C225.238 145.137 224.698 145.027 224.206 144.809C223.718 144.59 223.295 144.273 222.935 143.858C222.579 143.444 222.303 142.94 222.107 142.348C221.911 141.755 221.813 141.085 221.813 140.338V139.709C221.813 138.962 221.909 138.294 222.101 137.706C222.297 137.114 222.572 136.61 222.928 136.195C223.283 135.776 223.705 135.457 224.192 135.238C224.685 135.02 225.225 134.91 225.812 134.91C226.419 134.91 226.965 135.02 227.453 135.238C227.945 135.457 228.367 135.776 228.718 136.195C229.073 136.61 229.344 137.114 229.531 137.706C229.723 138.294 229.818 138.962 229.818 139.709ZM228.513 140.338V139.695C228.513 139.103 228.451 138.579 228.328 138.123C228.21 137.667 228.034 137.285 227.802 136.975C227.569 136.665 227.285 136.43 226.947 136.271C226.615 136.111 226.236 136.031 225.812 136.031C225.402 136.031 225.031 136.111 224.698 136.271C224.37 136.43 224.088 136.665 223.851 136.975C223.618 137.285 223.438 137.667 223.311 138.123C223.183 138.579 223.119 139.103 223.119 139.695V140.338C223.119 140.935 223.183 141.464 223.311 141.924C223.438 142.38 223.62 142.765 223.857 143.079C224.099 143.389 224.384 143.624 224.712 143.783C225.045 143.943 225.416 144.022 225.826 144.022C226.255 144.022 226.635 143.943 226.968 143.783C227.3 143.624 227.581 143.389 227.809 143.079C228.041 142.765 228.216 142.38 228.335 141.924C228.453 141.464 228.513 140.935 228.513 140.338ZM233.027 138.766V145H231.763V137.604H232.993L233.027 138.766ZM235.338 137.562L235.331 138.738C235.226 138.715 235.126 138.702 235.03 138.697C234.939 138.688 234.834 138.684 234.716 138.684C234.424 138.684 234.167 138.729 233.943 138.82C233.72 138.911 233.531 139.039 233.376 139.203C233.221 139.367 233.098 139.563 233.007 139.791C232.92 140.014 232.863 140.26 232.836 140.529L232.48 140.734C232.48 140.288 232.524 139.868 232.61 139.477C232.701 139.085 232.84 138.738 233.027 138.438C233.214 138.132 233.451 137.895 233.738 137.727C234.03 137.553 234.376 137.467 234.777 137.467C234.868 137.467 234.973 137.478 235.092 137.501C235.21 137.519 235.292 137.54 235.338 137.562ZM240.755 143.735V139.928C240.755 139.636 240.695 139.383 240.577 139.169C240.463 138.95 240.29 138.782 240.057 138.663C239.825 138.545 239.538 138.485 239.196 138.485C238.877 138.485 238.597 138.54 238.355 138.649C238.118 138.759 237.931 138.902 237.795 139.08C237.662 139.258 237.596 139.449 237.596 139.654H236.332C236.332 139.39 236.4 139.128 236.537 138.868C236.674 138.608 236.869 138.374 237.125 138.164C237.384 137.95 237.694 137.781 238.054 137.658C238.419 137.531 238.825 137.467 239.271 137.467C239.809 137.467 240.283 137.558 240.693 137.74C241.108 137.923 241.431 138.198 241.664 138.567C241.901 138.932 242.019 139.39 242.019 139.941V143.387C242.019 143.633 242.04 143.895 242.081 144.173C242.126 144.451 242.192 144.69 242.279 144.891V145H240.96C240.896 144.854 240.846 144.66 240.809 144.419C240.773 144.173 240.755 143.945 240.755 143.735ZM240.973 140.516L240.987 141.404H239.709C239.349 141.404 239.027 141.434 238.745 141.493C238.462 141.548 238.225 141.632 238.034 141.746C237.842 141.86 237.697 142.004 237.596 142.177C237.496 142.345 237.446 142.544 237.446 142.771C237.446 143.004 237.498 143.216 237.603 143.407C237.708 143.599 237.865 143.751 238.075 143.865C238.289 143.975 238.551 144.029 238.861 144.029C239.248 144.029 239.59 143.947 239.886 143.783C240.183 143.619 240.417 143.419 240.591 143.182C240.768 142.945 240.864 142.715 240.878 142.491L241.418 143.1C241.386 143.291 241.299 143.503 241.158 143.735C241.017 143.968 240.827 144.191 240.591 144.405C240.358 144.615 240.08 144.79 239.757 144.932C239.438 145.068 239.077 145.137 238.676 145.137C238.175 145.137 237.735 145.039 237.357 144.843C236.983 144.647 236.692 144.385 236.482 144.057C236.277 143.724 236.174 143.353 236.174 142.942C236.174 142.546 236.252 142.197 236.407 141.896C236.562 141.591 236.785 141.338 237.077 141.138C237.369 140.933 237.719 140.778 238.13 140.673C238.54 140.568 238.998 140.516 239.504 140.516H240.973ZM245.433 139.183V145H244.168V137.604H245.365L245.433 139.183ZM245.132 141.021L244.606 141.001C244.611 140.495 244.686 140.028 244.832 139.6C244.977 139.167 245.182 138.791 245.447 138.472C245.711 138.153 246.026 137.907 246.39 137.733C246.759 137.556 247.167 137.467 247.614 137.467C247.978 137.467 248.306 137.517 248.598 137.617C248.89 137.713 249.138 137.868 249.343 138.082C249.553 138.296 249.712 138.574 249.822 138.916C249.931 139.253 249.986 139.666 249.986 140.153V145H248.714V140.14C248.714 139.752 248.657 139.442 248.543 139.21C248.43 138.973 248.263 138.802 248.044 138.697C247.826 138.588 247.557 138.533 247.238 138.533C246.923 138.533 246.636 138.599 246.376 138.731C246.121 138.864 245.9 139.046 245.713 139.278C245.531 139.511 245.388 139.777 245.283 140.078C245.182 140.374 245.132 140.689 245.132 141.021ZM256.859 137.604H258.007V144.843C258.007 145.494 257.875 146.05 257.611 146.511C257.346 146.971 256.977 147.32 256.503 147.557C256.034 147.798 255.492 147.919 254.876 147.919C254.621 147.919 254.32 147.878 253.974 147.796C253.632 147.718 253.295 147.584 252.962 147.393C252.634 147.206 252.358 146.953 252.135 146.634L252.798 145.882C253.108 146.256 253.432 146.515 253.769 146.661C254.111 146.807 254.448 146.88 254.781 146.88C255.182 146.88 255.528 146.805 255.82 146.654C256.111 146.504 256.337 146.281 256.496 145.984C256.661 145.693 256.743 145.333 256.743 144.904V139.23L256.859 137.604ZM251.766 141.384V141.24C251.766 140.675 251.832 140.162 251.964 139.702C252.101 139.237 252.295 138.839 252.545 138.506C252.8 138.173 253.108 137.918 253.468 137.74C253.828 137.558 254.234 137.467 254.685 137.467C255.15 137.467 255.555 137.549 255.902 137.713C256.253 137.872 256.549 138.107 256.79 138.417C257.036 138.722 257.23 139.091 257.371 139.524C257.513 139.957 257.611 140.447 257.665 140.994V141.623C257.615 142.165 257.517 142.653 257.371 143.086C257.23 143.519 257.036 143.888 256.79 144.193C256.549 144.499 256.253 144.733 255.902 144.897C255.551 145.057 255.141 145.137 254.671 145.137C254.229 145.137 253.828 145.043 253.468 144.856C253.113 144.67 252.807 144.408 252.552 144.07C252.297 143.733 252.101 143.337 251.964 142.881C251.832 142.421 251.766 141.922 251.766 141.384ZM253.031 141.24V141.384C253.031 141.753 253.067 142.099 253.14 142.423C253.217 142.746 253.334 143.031 253.489 143.277C253.648 143.523 253.851 143.717 254.097 143.858C254.343 143.995 254.637 144.063 254.979 144.063C255.398 144.063 255.744 143.975 256.018 143.797C256.291 143.619 256.508 143.384 256.667 143.093C256.831 142.801 256.959 142.484 257.05 142.143V140.495C257 140.244 256.923 140.003 256.818 139.771C256.717 139.534 256.585 139.324 256.421 139.142C256.262 138.955 256.064 138.807 255.827 138.697C255.59 138.588 255.312 138.533 254.993 138.533C254.646 138.533 254.348 138.606 254.097 138.752C253.851 138.893 253.648 139.089 253.489 139.34C253.334 139.586 253.217 139.873 253.14 140.201C253.067 140.525 253.031 140.871 253.031 141.24ZM263.157 145.137C262.642 145.137 262.175 145.05 261.756 144.877C261.341 144.699 260.984 144.451 260.683 144.132C260.387 143.813 260.159 143.435 259.999 142.997C259.84 142.56 259.76 142.081 259.76 141.562V141.274C259.76 140.673 259.849 140.137 260.027 139.668C260.204 139.194 260.446 138.793 260.751 138.465C261.057 138.137 261.403 137.888 261.79 137.72C262.178 137.551 262.579 137.467 262.993 137.467C263.522 137.467 263.978 137.558 264.361 137.74C264.748 137.923 265.065 138.178 265.311 138.506C265.557 138.829 265.739 139.212 265.858 139.654C265.976 140.092 266.035 140.57 266.035 141.09V141.657H260.512V140.625H264.771V140.529C264.752 140.201 264.684 139.882 264.566 139.572C264.452 139.262 264.269 139.007 264.019 138.807C263.768 138.606 263.426 138.506 262.993 138.506C262.706 138.506 262.442 138.567 262.2 138.69C261.959 138.809 261.751 138.987 261.578 139.224C261.405 139.461 261.271 139.75 261.175 140.092C261.079 140.434 261.031 140.828 261.031 141.274V141.562C261.031 141.912 261.079 142.243 261.175 142.553C261.275 142.858 261.419 143.127 261.606 143.359C261.797 143.592 262.027 143.774 262.296 143.906C262.57 144.038 262.879 144.104 263.226 144.104C263.672 144.104 264.051 144.013 264.361 143.831C264.67 143.649 264.942 143.405 265.174 143.1L265.94 143.708C265.78 143.95 265.577 144.18 265.331 144.398C265.085 144.617 264.782 144.795 264.422 144.932C264.067 145.068 263.645 145.137 263.157 145.137Z" fill="#D5D5D5"/>
</svg>
