<?xml version="1.0" standalone="no"?>
<!DOCTYPE svg PUBLIC "-//W3C//DTD SVG 20010904//EN"
 "http://www.w3.org/TR/2001/REC-SVG-20010904/DTD/svg10.dtd">
<svg version="1.0" xmlns="http://www.w3.org/2000/svg"
 width="700.000000pt" height="700.000000pt" viewBox="0 0 700.000000 700.000000"
 preserveAspectRatio="xMidYMid meet">
<metadata>
Created by potrace 1.11, written by Peter Selinger 2001-2013
</metadata>
<g transform="translate(0.000000,700.000000) scale(0.100000,-0.100000)"
fill="#000000" stroke="none">
<path d="M3278 6996 c-1 -2 -41 -6 -88 -10 -47 -4 -96 -8 -110 -10 -14 -2 -46
-7 -71 -10 -25 -4 -57 -9 -70 -11 -13 -2 -42 -6 -63 -10 -34 -5 -193 -40 -291
-65 -84 -21 -147 -43 -160 -57 -20 -20 -138 -221 -213 -363 -94 -178 -190
-399 -253 -580 -32 -91 -116 -367 -123 -403 -2 -12 -15 -71 -29 -132 -27 -120
-63 -326 -73 -420 -3 -33 -7 -72 -9 -88 -2 -15 -7 -73 -11 -129 -5 -84 -4
-100 7 -96 8 3 68 27 134 53 66 26 134 53 150 60 17 7 93 40 170 73 452 194
893 422 1327 689 l137 84 103 -67 c122 -80 326 -204 335 -204 4 0 14 -6 22
-14 15 -12 64 -40 221 -124 120 -64 380 -192 468 -231 48 -21 112 -50 142 -64
250 -112 863 -328 1300 -457 41 -12 102 -30 135 -40 33 -11 130 -38 215 -60
85 -23 184 -50 220 -60 36 -10 79 -21 97 -25 l31 -6 -29 118 c-178 713 -580
1362 -1135 1830 -116 97 -119 100 -213 167 -47 33 -88 63 -91 66 -6 6 -11 9
-155 96 -324 197 -714 351 -1083 429 -96 20 -131 25 -387 60 -43 6 -551 16
-557 11z"/>
<path d="M1925 6627 c-167 -87 -415 -239 -495 -304 -8 -7 -52 -41 -97 -76
-336 -261 -651 -626 -873 -1012 -48 -83 -170 -328 -170 -340 0 -3 -9 -24 -20
-48 -93 -199 -209 -621 -236 -857 -4 -30 -8 -57 -10 -60 -25 -44 -24 -809 1
-850 2 -3 6 -33 9 -66 14 -150 111 -550 165 -679 5 -11 30 -75 55 -142 98
-254 268 -555 447 -793 187 -248 375 -441 642 -656 85 -69 358 -254 374 -254
3 0 14 -6 22 -14 26 -23 257 -139 386 -193 196 -84 497 -179 651 -207 15 -3
50 -10 78 -15 103 -20 246 -40 356 -49 209 -17 615 -5 775 23 17 3 50 8 75 11
39 5 112 19 210 40 148 31 419 119 595 194 108 46 255 118 255 124 0 3 -26 10
-57 16 -259 50 -733 200 -968 305 -27 12 -79 35 -115 51 -161 72 -685 352
-730 391 -8 7 -73 51 -143 98 -106 70 -296 211 -317 234 -3 3 -43 40 -90 81
-101 90 -263 256 -366 375 -74 87 -236 311 -311 432 -91 148 -239 441 -297
589 -91 235 -167 507 -205 739 -19 112 -24 150 -36 265 -28 256 -28 739 0 960
14 118 25 193 40 275 4 22 9 47 10 55 2 8 11 51 20 95 9 44 18 88 20 97 2 10
16 62 30 115 88 328 203 628 356 936 43 87 79 160 79 163 0 9 -18 1 -115 -49z"/>
<path d="M5579 4338 c-6 -122 -18 -298 -24 -342 -2 -17 -7 -53 -10 -81 -4 -27
-9 -61 -10 -75 -2 -14 -8 -54 -14 -90 -39 -235 -117 -516 -208 -750 -66 -170
-221 -478 -308 -615 -150 -234 -300 -422 -494 -616 -192 -192 -386 -351 -612
-501 -125 -83 -137 -94 -122 -106 36 -27 313 -161 463 -225 362 -153 739 -262
1113 -323 l108 -17 62 43 c34 24 64 47 65 52 2 4 8 8 14 8 5 0 15 6 22 13 7 6
31 26 52 42 334 261 655 636 865 1010 25 44 50 89 57 100 64 114 161 341 221
521 38 115 103 358 115 434 3 19 8 45 10 56 2 12 7 39 10 60 4 22 9 53 11 69
36 218 41 631 11 919 -2 10 -9 22 -17 26 -8 5 -102 31 -209 59 -265 69 -321
84 -422 115 -48 15 -95 29 -105 31 -32 6 -621 194 -635 202 -5 2 -8 -6 -9 -19z"/>
</g>
</svg>
